<?xml version="1.0" encoding="UTF-8"?>
<svg version="1.1" xmlns="http://www.w3.org/2000/svg" width="84" height="105">
<path d="M0 0 C27.72 0 55.44 0 84 0 C84 34.65 84 69.3 84 105 C56.28 105 28.56 105 0 105 C0 70.35 0 35.7 0 0 Z " fill="#ADADB1" transform="translate(0,0)"/>
<path d="M0 0 C0.88042969 0.05244873 1.76085938 0.10489746 2.66796875 0.15893555 C9.60085843 0.73731829 14.84276488 2.42601167 20.125 7.125 C20.80046875 7.66640625 21.4759375 8.2078125 22.171875 8.765625 C24.99690103 12.17825645 26.05679749 15.87586194 27.375 20.0625 C27.643125 20.86107422 27.91125 21.65964844 28.1875 22.48242188 C29.4774717 26.45435006 30.50104853 29.89445401 30.125 34.125 C27.65 34.62 27.65 34.62 25.125 35.125 C25.28742188 35.66382813 25.44984375 36.20265625 25.6171875 36.7578125 C26.21797653 39.55841367 26.25728712 42.13616273 26.25 45 C26.25386719 46.51207031 26.25386719 46.51207031 26.2578125 48.0546875 C26.125 51.125 26.125 51.125 25.6484375 53.89453125 C24.80674547 59.08915299 24.72947447 64.32370342 24.51953125 69.57617188 C24.48214844 70.40310547 24.44476563 71.23003906 24.40625 72.08203125 C24.37595703 72.83460205 24.34566406 73.58717285 24.31445312 74.36254883 C24.125 76.125 24.125 76.125 23.125 77.125 C21.45882885 77.16563832 19.79111905 77.167721 18.125 77.125 C18.125 75.145 18.125 73.165 18.125 71.125 C17.135 71.62 17.135 71.62 16.125 72.125 C-9.53076319 74.94087645 -9.53076319 74.94087645 -15.51757812 71.06030273 C-17.57988723 68.12002858 -17.35533631 65.0823388 -17.38671875 61.61328125 C-17.40466995 60.88505661 -17.42262115 60.15683197 -17.44111633 59.40653992 C-17.49524213 57.08358529 -17.5291208 54.76083634 -17.5625 52.4375 C-17.59567125 50.86129949 -17.63016073 49.28512612 -17.66601562 47.70898438 C-17.7509693 43.84780464 -17.81776876 39.98668613 -17.875 36.125 C-18.205 39.095 -18.535 42.065 -18.875 45.125 C-19.205 45.125 -19.535 45.125 -19.875 45.125 C-19.875 42.155 -19.875 39.185 -19.875 36.125 C-20.74125 36.0425 -21.6075 35.96 -22.5 35.875 C-26.35234858 35.01892254 -28.723219 33.45131454 -31.875 31.125 C-31.25891186 26.01226855 -29.71169836 21.74482493 -27.6875 17.0625 C-27.40841797 16.36833984 -27.12933594 15.67417969 -26.84179688 14.95898438 C-23.85815923 8.0235088 -18.82448458 4.03643193 -12.06152344 0.85253906 C-8.04558478 -0.48371565 -4.17865222 -0.28740159 0 0 Z " fill="#100F0F" transform="translate(41.875,27.875)"/>
<path d="M0 0 C15.84 0 31.68 0 48 0 C48 0.33 48 0.66 48 1 C47.01257812 1.13277344 46.02515625 1.26554688 45.0078125 1.40234375 C43.72648437 1.57894531 42.44515625 1.75554688 41.125 1.9375 C39.84882812 2.11152344 38.57265625 2.28554688 37.2578125 2.46484375 C34.12440546 2.81433227 34.12440546 2.81433227 32 4 C31.68738978 12.47521042 32.76807042 19.11028956 36 27 C35.03578125 27.44730469 34.0715625 27.89460938 33.078125 28.35546875 C31.80177027 28.96549123 30.52574583 29.57620513 29.25 30.1875 C28.61578125 30.47947266 27.9815625 30.77144531 27.328125 31.07226562 C20.07682504 34.58461404 17.31451987 39.88784082 14.25 47.0625 C13.93417969 47.76955078 13.61835938 48.47660156 13.29296875 49.20507812 C11.7578188 52.74389781 11 55.08848697 11 59 C12.24735567 59.6509259 13.49801832 60.29551669 14.75 60.9375 C15.44609375 61.29714844 16.1421875 61.65679687 16.859375 62.02734375 C18.94433237 62.97470577 20.72734873 63.69920792 23 64 C23.66 63.34 24.32 62.68 25 62 C25.01981934 63.04978027 25.03963867 64.09956055 25.06005859 65.18115234 C25.13602198 69.06893261 25.22475298 72.95633403 25.31738281 76.84375 C25.35571104 78.52759329 25.39055712 80.21151955 25.421875 81.89550781 C25.46744287 84.31345306 25.52544923 86.73082528 25.5859375 89.1484375 C25.59748871 89.9036972 25.60903992 90.65895691 25.62094116 91.43710327 C25.60330066 95.67825198 25.60330066 95.67825198 28 99 C38.61094904 100.65571118 49.35407141 99.8469833 60 99 C60 100.98 60 102.96 60 105 C40.2 105 20.4 105 0 105 C0 70.35 0 35.7 0 0 Z " fill="#B7B7B9" transform="translate(0,0)"/>
<path d="M0 0 C0.98226563 0.15339844 1.96453125 0.30679688 2.9765625 0.46484375 C7.10015103 1.05377944 11.21827877 1.32901934 15.375 1.5625 C16.09816406 1.60568359 16.82132813 1.64886719 17.56640625 1.69335938 C20.78099957 1.91000455 20.78099957 1.91000455 24 2 C24.93496219 9.06006885 25.12086777 15.94612235 25.0625 23.0625 C25.05798828 24.11888672 25.05347656 25.17527344 25.04882812 26.26367188 C25.03715918 28.84250908 25.02078885 31.42122294 25 34 C19.50372155 33.59486891 16.82310912 32.58385515 12.875 28.75 C12.029375 27.94175781 11.18375 27.13351563 10.3125 26.30078125 C9.549375 25.54152344 8.78625 24.78226563 8 24 C7.4225 23.43667969 6.845 22.87335938 6.25 22.29296875 C5.15170923 21.2102787 4.07249685 20.10824675 3 19 C3.33 18.01 3.66 17.02 4 16 C3.01 15.67 2.02 15.34 1 15 C-0.44207941 12.11584117 -0.09394887 9.58278472 -0.0625 6.375 C-0.05347656 5.18648437 -0.04445313 3.99796875 -0.03515625 2.7734375 C-0.02355469 1.85820313 -0.01195313 0.94296875 0 0 Z " fill="#240F0D" transform="translate(28,46)"/>
<path d="M0 0 C2.34896848 3.22249113 1.72747312 6.9073017 1.25 10.71484375 C0.44397563 13.52203207 -0.57739863 16.02763227 -1.75 18.71484375 C-9.12042925 19.07732388 -9.12042925 19.07732388 -11.8125 17.52734375 C-13.13135516 14.9775571 -12.5475116 13.39738277 -11.75 10.71484375 C-13.73 11.70484375 -13.73 11.70484375 -15.75 12.71484375 C-18.12813717 8.5531037 -19.40793917 5.53973101 -18.75 0.71484375 C-13.57320952 -2.7363499 -5.34531165 -3.92546324 0 0 Z " fill="#130E0B" transform="translate(49.75,3.28515625)"/>
<path d="M0 0 C0.99 0 1.98 0 3 0 C2.67 2.31 2.34 4.62 2 7 C1.34 7 0.68 7 0 7 C0.4125 7.4125 0.825 7.825 1.25 8.25 C1.8275 8.8275 2.405 9.405 3 10 C3.680625 10.66 4.36125 11.32 5.0625 12 C7 14 7 14 9 17 C9.99 17.33 10.98 17.66 12 18 C12 15.36 12 12.72 12 10 C12.66 10 13.32 10 14 10 C14 16.27 14 22.54 14 29 C9.54443066 27.88610766 6.88097125 25.85240792 3.375 23.0625 C2.78976563 22.60681641 2.20453125 22.15113281 1.6015625 21.68164062 C-0.70698922 19.87345161 -2.92478739 18.07521261 -5 16 C-4.95875 15.05125 -4.9175 14.1025 -4.875 13.125 C-4.68492738 9.88163407 -4.68492738 9.88163407 -7 7.625 C-7.66 7.08875 -8.32 6.5525 -9 6 C-8.67 5.01 -8.34 4.02 -8 3 C-6.02 3.495 -6.02 3.495 -4 4 C-3.67 3.01 -3.34 2.02 -3 1 C-2.01 1.33 -1.02 1.66 0 2 C0 1.34 0 0.68 0 0 Z " fill="#500F0D" transform="translate(38,49)"/>
<path d="M0 0 C2.29626684 3.44440027 2.24351772 4.7639466 2.1875 8.8125 C2.17783203 10.33810547 2.17783203 10.33810547 2.16796875 11.89453125 C2 15 2 15 1.51953125 17.7734375 C0.68325682 22.96714187 0.6044072 28.20038651 0.39453125 33.45117188 C0.35714844 34.27810547 0.31976563 35.10503906 0.28125 35.95703125 C0.23581055 37.08588745 0.23581055 37.08588745 0.18945312 38.23754883 C0 40 0 40 -1 41 C-2.66617115 41.04063832 -4.33388095 41.042721 -6 41 C-6.33 38.69 -6.66 36.38 -7 34 C-6.34 34 -5.68 34 -5 34 C-5 35.65 -5 37.3 -5 39 C-4.01 38.505 -4.01 38.505 -3 38 C-3.33 34.7 -3.66 31.4 -4 28 C-4.66 28.33 -5.32 28.66 -6 29 C-8.93684999 20.18945003 -8.12041001 10.16453927 -8 1 C-5.36 0.67 -2.72 0.34 0 0 Z " fill="#5C3A29" transform="translate(66,64)"/>
<path d="M0 0 C2.01822917 0.5859375 4.03645833 1.171875 6.0546875 1.7578125 C6.69664063 1.83773437 7.33859375 1.91765625 8 2 C8.66 1.34 9.32 0.68 10 0 C10.16786661 5.05350812 10.32839939 10.10717633 10.48217773 15.16113281 C10.53550569 16.87994637 10.59082764 18.59869928 10.64819336 20.31738281 C10.73036178 22.78958054 10.80532729 25.26190855 10.87890625 27.734375 C10.90594131 28.50118591 10.93297638 29.26799683 10.96083069 30.05804443 C11.05896128 33.57599292 10.9552807 36.61853025 10 40 C8.35 39.67 6.7 39.34 5 39 C4.34 30.09 3.68 21.18 3 12 C2.01 11.67 1.02 11.34 0 11 C0 7.37 0 3.74 0 0 Z " fill="#422B22" transform="translate(15,62)"/>
<path d="M0 0 C0.95376567 3.20782086 1.11621181 6.08187396 1.09765625 9.421875 C1.09443359 10.44667969 1.09121094 11.47148438 1.08789062 12.52734375 C1.07951172 13.59082031 1.07113281 14.65429688 1.0625 15.75 C1.05798828 16.82894531 1.05347656 17.90789062 1.04882812 19.01953125 C1.03705727 21.67974383 1.02061399 24.33984365 1 27 C-1.375 26.6875 -1.375 26.6875 -4 26 C-4.66 25.01 -5.32 24.02 -6 23 C-4.02 23.66 -2.04 24.32 0 25 C0 18.73 0 12.46 0 6 C-0.66 6 -1.32 6 -2 6 C-2 8.64 -2 11.28 -2 14 C-3.8125 13.8125 -3.8125 13.8125 -6 13 C-7.0064275 11.33720673 -8.00585407 9.67016516 -9 8 C-10.64605826 6.96642853 -12.30963442 5.95939668 -14 5 C-14 4.34 -14 3.68 -14 3 C-8.99312406 -1.38101645 -6.16857271 -1.27625642 0 0 Z " fill="#490F0D" transform="translate(52,53)"/>
<path d="M0 0 C0.66 0 1.32 0 2 0 C2 6.27 2 12.54 2 19 C-2 18 -2 18 -4 17 C-5 15 -6 13 -7 11 C-7.66 10.67 -8.32 10.34 -9 10 C-9.625 6.9375 -9.625 6.9375 -10 4 C-7.625 3.8125 -7.625 3.8125 -5 4 C-4.01 5.485 -4.01 5.485 -3 7 C-2.01 7.33 -1.02 7.66 0 8 C0 5.36 0 2.72 0 0 Z " fill="#900E0D" transform="translate(50,59)"/>
<path d="M0 0 C2.35119399 3.52679099 2.21443452 5.02879485 2.125 9.1875 C2.10695313 10.27417969 2.08890625 11.36085938 2.0703125 12.48046875 C2.03550781 13.72763672 2.03550781 13.72763672 2 15 C1.67 15 1.34 15 1 15 C1 13.02 1 11.04 1 9 C0.34 9 -0.32 9 -1 9 C-1 8.34 -1 7.68 -1 7 C-1.99 6.67 -2.98 6.34 -4 6 C-5.23402862 10.77092956 -5.11265112 15.42469446 -5.0625 20.3125 C-5.05798828 21.14845703 -5.05347656 21.98441406 -5.04882812 22.84570312 C-5.03710548 24.89716649 -5.01917203 26.94859273 -5 29 C-9.98992657 21.51511015 -8.11379237 9.66086399 -8 1 C-5.36 0.67 -2.72 0.34 0 0 Z " fill="#6D635F" transform="translate(66,64)"/>
<path d="M0 0 C1.43861294 0.08746284 2.87597508 0.19565348 4.3125 0.3125 C5.11300781 0.37050781 5.91351563 0.42851562 6.73828125 0.48828125 C9.45605601 1.10318366 10.41155176 1.71915125 12 4 C12.29296875 6.26171875 12.29296875 6.26171875 12.1875 8.6875 C12.16042969 9.49574219 12.13335937 10.30398438 12.10546875 11.13671875 C12.07066406 11.75160156 12.03585938 12.36648438 12 13 C9.61435923 12.42415568 7.33317216 11.77772405 5 11 C4.4375 9.0625 4.4375 9.0625 4 7 C3.34 6.34 2.68 5.68 2 5 C3.65 4.67 5.3 4.34 7 4 C4.36 4 1.72 4 -1 4 C-0.67 2.68 -0.34 1.36 0 0 Z " fill="#161311" transform="translate(39,1)"/>
<path d="M0 0 C1.98 0.66 3.96 1.32 6 2 C6.12190678 10.39802254 5.84327749 18.64251778 5 27 C4.67 27 4.34 27 4 27 C3.67 22.05 3.34 17.1 3 12 C2.01 11.67 1.02 11.34 0 11 C0 7.37 0 3.74 0 0 Z " fill="#AE7F60" transform="translate(15,62)"/>
<path d="M0 0 C1.32 1.65 2.64 3.3 4 5 C4.99 4.67 5.98 4.34 7 4 C7.66666667 6.66666667 8.33333333 9.33333333 9 12 C11.64 12 14.28 12 17 12 C16.67 12.66 16.34 13.32 16 14 C14.88625 13.95875 13.7725 13.9175 12.625 13.875 C8.95633975 13.58878141 8.95633975 13.58878141 7 16 C5 15.9375 5 15.9375 3 15 C0.28256192 10.56628524 0.37412703 5.07040575 0 0 Z " fill="#8A5E45" transform="translate(31,10)"/>
<path d="M0 0 C1.134375 0.020625 2.26875 0.04125 3.4375 0.0625 C3.72625 0.68125 4.015 1.3 4.3125 1.9375 C5.37470042 4.19575765 5.37470042 4.19575765 7.4375 6.0625 C4.9997037 6.11647335 2.56310315 6.15615616 0.125 6.1875 C-0.91043945 6.21263672 -0.91043945 6.21263672 -1.96679688 6.23828125 C-5.73385396 6.27467794 -7.34681704 6.20628864 -10.5625 4.0625 C-9.593125 3.588125 -8.62375 3.11375 -7.625 2.625 C-2.56831395 0.04505814 -2.56831395 0.04505814 0 0 Z " fill="#C59C80" transform="translate(43.5625,22.9375)"/>
<path d="M0 0 C0.33 0 0.66 0 1 0 C1 9.24 1 18.48 1 28 C0.34 28 -0.32 28 -1 28 C-3.62996199 20.11011404 -2.05694857 10.12936983 -1 2 C-0.67 1.34 -0.34 0.68 0 0 Z " fill="#A9A8A8" transform="translate(24,62)"/>
<path d="M0 0 C8.15996897 -0.93752835 13.5512355 0.90299575 20 6 C20.99 7.485 20.99 7.485 22 9 C21.01 9.33 20.02 9.66 19 10 C18.67 10.66 18.34 11.32 18 12 C17.608125 11.236875 17.21625 10.47375 16.8125 9.6875 C14.23563987 5.86663843 11.6297864 4.39839223 7.1875 3.3125 C6.465625 3.209375 5.74375 3.10625 5 3 C5 2.67 5 2.34 5 2 C3.35 1.67 1.7 1.34 0 1 C0 0.67 0 0.34 0 0 Z " fill="#1E1C1D" transform="translate(42,29)"/>
<path d="M0 0 C8.25 0 16.5 0 25 0 C25 0.33 25 0.66 25 1 C20.71 1 16.42 1 12 1 C12 2.32 12 3.64 12 5 C9.03 5 6.06 5 3 5 C3 3.68 3 2.36 3 1 C2.01 0.67 1.02 0.34 0 0 Z " fill="#787676" transform="translate(32,100)"/>
<path d="M0 0 C3 1 3 1 4 3 C4.95162775 10.97722518 5.14473689 18.97514378 5 27 C4.67 27 4.34 27 4 27 C3.92652344 26.03900391 3.92652344 26.03900391 3.8515625 25.05859375 C3.50565873 21.05684502 3.10683968 17.37393889 2 13.5 C0.72242882 9.02850085 0.35352085 4.62368059 0 0 Z " fill="#C59979" transform="translate(15,73)"/>
<path d="M0 0 C1.65 0 3.3 0 5 0 C5.66 1.32 6.32 2.64 7 4 C6.01 5.485 6.01 5.485 5 7 C5.66 7 6.32 7 7 7 C7 8.32 7 9.64 7 11 C7.66 11 8.32 11 9 11 C9.66 12.32 10.32 13.64 11 15 C8.6875 14.375 8.6875 14.375 6 13 C4.3125 9.9375 4.3125 9.9375 3 7 C2.34 6.67 1.68 6.34 1 6 C0.375 2.9375 0.375 2.9375 0 0 Z " fill="#770E0E" transform="translate(40,63)"/>
<path d="M0 0 C1.32 0.33 2.64 0.66 4 1 C4 2.98 4 4.96 4 7 C4.66 7.33 5.32 7.66 6 8 C5.67 9.32 5.34 10.64 5 12 C3.35 11.67 1.7 11.34 0 11 C0 7.37 0 3.74 0 0 Z " fill="#7A513C" transform="translate(20,90)"/>
<path d="M0 0 C2.35119399 3.52679099 2.21443452 5.02879485 2.125 9.1875 C2.10695313 10.27417969 2.08890625 11.36085938 2.0703125 12.48046875 C2.03550781 13.72763672 2.03550781 13.72763672 2 15 C1.67 15 1.34 15 1 15 C1 13.02 1 11.04 1 9 C0.34 9 -0.32 9 -1 9 C-1 8.34 -1 7.68 -1 7 C-2.32 6.34 -3.64 5.68 -5 5 C-5 4.01 -5 3.02 -5 2 C-3.35 2 -1.7 2 0 2 C0 1.34 0 0.68 0 0 Z " fill="#745344" transform="translate(66,64)"/>
<path d="M0 0 C4.455 0.99 4.455 0.99 9 2 C9 3.32 9 4.64 9 6 C6.03 6 3.06 6 0 6 C0 4.02 0 2.04 0 0 Z " fill="#CECDCD" transform="translate(26,99)"/>
<path d="M0 0 C1.32 0.66 2.64 1.32 4 2 C4 2.66 4 3.32 4 4 C3.01 4 2.02 4 1 4 C1.08378906 4.86882812 1.16757812 5.73765625 1.25390625 6.6328125 C1.35574219 7.78523438 1.45757812 8.93765625 1.5625 10.125 C1.66691406 11.26195313 1.77132812 12.39890625 1.87890625 13.5703125 C1.99608016 16.88897993 1.6655072 19.7562686 1 23 C0.67 23 0.34 23 0 23 C-0.19601027 20.29204274 -0.38204839 17.58400195 -0.5625 14.875 C-0.61857422 14.11445312 -0.67464844 13.35390625 -0.73242188 12.5703125 C-1.01498074 8.20006872 -0.93147699 4.31929331 0 0 Z " fill="#412C22" transform="translate(61,69)"/>
<path d="M0 0 C0.33 0 0.66 0 1 0 C1.12190678 8.39802254 0.84327749 16.64251778 0 25 C-0.33 25 -0.66 25 -1 25 C-1 19.06 -1 13.12 -1 7 C-1.66 7 -2.32 7 -3 7 C-3 6.01 -3 5.02 -3 4 C-2.34 4 -1.68 4 -1 4 C-0.67 2.68 -0.34 1.36 0 0 Z " fill="#8C5E43" transform="translate(20,64)"/>
<path d="M0 0 C0.33 0 0.66 0 1 0 C1.33 5.61 1.66 11.22 2 17 C1.01 17 0.02 17 -1 17 C-1.36552803 15.58622218 -1.71695495 14.16879424 -2.0625 12.75 C-2.25972656 11.96109375 -2.45695312 11.1721875 -2.66015625 10.359375 C-3.01497267 7.89605178 -2.76877544 6.34395868 -2 4 C-1.67 4.66 -1.34 5.32 -1 6 C-0.67 4.02 -0.34 2.04 0 0 Z " fill="#281813" transform="translate(62,86)"/>
<path d="M0 0 C1.65 0 3.3 0 5 0 C5.33 0.66 5.66 1.32 6 2 C5.34 2 4.68 2 4 2 C4.495 2.45375 4.99 2.9075 5.5 3.375 C7 5 7 5 7 7 C6.01 7 5.02 7 4 7 C4 7.66 4 8.32 4 9 C3.01 8.67 2.02 8.34 1 8 C0.67 5.36 0.34 2.72 0 0 Z " fill="#780E0E" transform="translate(34,54)"/>
<path d="M0 0 C1.5 1.3125 1.5 1.3125 3 3 C3 3.99 3 4.98 3 6 C3.66 6 4.32 6 5 6 C5 7.32 5 8.64 5 10 C5.66 10 6.32 10 7 10 C6.67 10.99 6.34 11.98 6 13 C4.68 12.67 3.36 12.34 2 12 C0.86235649 7.73383684 0 4.43513689 0 0 Z " fill="#9D755B" transform="translate(31,10)"/>
<path d="M0 0 C0.66 0 1.32 0 2 0 C2.02687279 1.81242052 2.04633715 3.62495233 2.0625 5.4375 C2.07410156 6.44683594 2.08570312 7.45617187 2.09765625 8.49609375 C2 11 2 11 1 12 C-0.66617115 12.04063832 -2.33388095 12.042721 -4 12 C-4.33 9.69 -4.66 7.38 -5 5 C-4.34 5 -3.68 5 -3 5 C-3 6.65 -3 8.3 -3 10 C-2.01 10 -1.02 10 0 10 C0 6.7 0 3.4 0 0 Z " fill="#7B665D" transform="translate(64,93)"/>
<path d="M0 0 C1.65 0 3.3 0 5 0 C5 3.96 5 7.92 5 12 C4.67 11.01 4.34 10.02 4 9 C3.34 9 2.68 9 2 9 C1.855625 8.195625 1.71125 7.39125 1.5625 6.5625 C1.25864751 4.07896294 1.25864751 4.07896294 0 3 C0 2.01 0 1.02 0 0 Z " fill="#694330" transform="translate(62,73)"/>
<path d="M0 0 C1.6875 1.4375 1.6875 1.4375 3 3 C3.33 3 3.66 3 4 3 C4 5.64 4 8.28 4 11 C3.01 10.67 2.02 10.34 1 10 C1.33 8.35 1.66 6.7 2 5 C0.02 5.99 0.02 5.99 -2 7 C-2.66 5.02 -3.32 3.04 -4 1 C-2.1875 0.3125 -2.1875 0.3125 0 0 Z " fill="#251610" transform="translate(36,9)"/>
<path d="M0 0 C9.97796215 4.64091263 9.97796215 4.64091263 12.140625 9.6328125 C12.56601562 10.80457031 12.56601562 10.80457031 13 12 C2.89168279 5.52030948 2.89168279 5.52030948 0 2 C0 1.34 0 0.68 0 0 Z " fill="#410F0D" transform="translate(33,63)"/>
<path d="M0 0 C0.5775 0.226875 1.155 0.45375 1.75 0.6875 C1.42 1.6775 1.09 2.6675 0.75 3.6875 C0.09 3.6875 -0.57 3.6875 -1.25 3.6875 C-1.25 4.3475 -1.25 5.0075 -1.25 5.6875 C-3.89 5.3575 -6.53 5.0275 -9.25 4.6875 C-8.26 4.0275 -7.27 3.3675 -6.25 2.6875 C-5.610625 2.130625 -4.97125 1.57375 -4.3125 1 C-2.25 -0.3125 -2.25 -0.3125 0 0 Z " fill="#B18669" transform="translate(42.25,23.3125)"/>
<path d="M0 0 C1.45945288 0.08708669 2.91765868 0.19526907 4.375 0.3125 C5.59316406 0.39951172 5.59316406 0.39951172 6.8359375 0.48828125 C9 1 9 1 11 4 C7.04 4 3.08 4 -1 4 C-0.67 2.68 -0.34 1.36 0 0 Z " fill="#282524" transform="translate(39,1)"/>
<path d="M0 0 C2 1.3125 2 1.3125 4 3 C4 3.99 4 4.98 4 6 C1.69 5.67 -0.62 5.34 -3 5 C-3.33 4.01 -3.66 3.02 -4 2 C-2.68 1.34 -1.36 0.68 0 0 Z " fill="#310F0D" transform="translate(42,54)"/>
<path d="M0 0 C0 0.66 0 1.32 0 2 C-1.32 2 -2.64 2 -4 2 C-3.67 3.65 -3.34 5.3 -3 7 C-4.65 5.35 -6.3 3.7 -8 2 C-7.34 2 -6.68 2 -6 2 C-6 1.34 -6 0.68 -6 0 C-3 -1 -3 -1 0 0 Z " fill="#620E0E" transform="translate(44,61)"/>
<path d="M0 0 C1.58246707 -0.08153933 3.16616273 -0.13943557 4.75 -0.1875 C6.07257812 -0.23970703 6.07257812 -0.23970703 7.421875 -0.29296875 C10.44671583 0.05076316 11.75583602 1.00227459 14 3 C8.87160006 4.81975482 4.82315618 2.8599099 0 1 C0 0.67 0 0.34 0 0 Z " fill="#272221" transform="translate(42,29)"/>
<path d="M0 0 C0.33 0 0.66 0 1 0 C1 2.97 1 5.94 1 9 C-0.32 8.67 -1.64 8.34 -3 8 C-3 4.41465407 -1.97637955 2.92504174 0 0 Z " fill="#201E1E" transform="translate(50,5)"/>
<path d="M0 0 C2.69082872 0.17635452 5.32851446 0.61835921 8 1 C8 1.99 8 2.98 8 4 C6.02 4 4.04 4 2 4 C2 3.34 2 2.68 2 2 C1.01 1.67 0.02 1.34 -1 1 C-0.67 0.67 -0.34 0.34 0 0 Z " fill="#460F0D" transform="translate(44,52)"/>
<path d="M0 0 C0 0.99 0 1.98 0 3 C-2.875 3.125 -2.875 3.125 -6 3 C-6.66 2.34 -7.32 1.68 -8 1 C-5.29120665 -0.35439668 -2.99066732 -0.06501451 0 0 Z " fill="#A7A5A7" transform="translate(56,101)"/>
<path d="M0 0 C1.32 0.33 2.64 0.66 4 1 C3.67 2.65 3.34 4.3 3 6 C2.01 6 1.02 6 0 6 C0 4.02 0 2.04 0 0 Z " fill="#E9EAE8" transform="translate(26,99)"/>
<path d="M0 0 C0.598125 0.20625 1.19625 0.4125 1.8125 0.625 C1.02875 1.223125 0.245 1.82125 -0.5625 2.4375 C-3.33324323 4.53585249 -3.33324323 4.53585249 -5.1875 7.625 C-5.375 4.75 -5.375 4.75 -5.1875 1.625 C-2.1875 -0.375 -2.1875 -0.375 0 0 Z " fill="#272120" transform="translate(36.1875,2.375)"/>
<path d="M0 0 C1.98 0 3.96 0 6 0 C5.01 0.495 5.01 0.495 4 1 C4.33 1.99 4.66 2.98 5 4 C3.35 4 1.7 4 0 4 C0 2.68 0 1.36 0 0 Z " fill="#C8C6C4" transform="translate(44,101)"/>
</svg>
