<?xml version="1.0" encoding="UTF-8"?>
<svg version="1.1" xmlns="http://www.w3.org/2000/svg" width="96" height="120">
<path d="M0 0 C31.68 0 63.36 0 96 0 C96 39.6 96 79.2 96 120 C64.32 120 32.64 120 0 120 C0 80.4 0 40.8 0 0 Z " fill="#ADADB2" transform="translate(0,0)"/>
<path d="M0 0 C0.96470215 0.04987061 1.9294043 0.09974121 2.92333984 0.15112305 C12.99454996 0.92837432 20.37329158 4.57220903 27.1875 12.1875 C28.37597656 14.79711914 28.37597656 14.79711914 29.328125 17.72265625 C29.67617187 18.77904297 30.02421875 19.83542969 30.3828125 20.92382812 C30.73085937 22.02146484 31.07890625 23.11910156 31.4375 24.25 C31.80101563 25.35150391 32.16453125 26.45300781 32.5390625 27.58789062 C35.1875 35.73731203 35.1875 35.73731203 35.1875 39.1875 C33.2075 39.8475 31.2275 40.5075 29.1875 41.1875 C29.21070312 42.50621094 29.23390625 43.82492188 29.2578125 45.18359375 C29.38036379 55.41375457 29.07676099 65.29369933 27.625 75.42578125 C27.29678155 78.24787386 27.15243702 80.78728188 27.1875 83.60546875 C27.1875 84.78753906 27.1875 85.96960938 27.1875 87.1875 C26.1875 88.1875 26.1875 88.1875 23.625 88.25 C22.820625 88.229375 22.01625 88.20875 21.1875 88.1875 C20.6925 84.7225 20.6925 84.7225 20.1875 81.1875 C19.1975 81.8475 18.2075 82.5075 17.1875 83.1875 C14.38769531 83.44628906 14.38769531 83.44628906 11.015625 83.453125 C9.79359375 83.45570312 8.5715625 83.45828125 7.3125 83.4609375 C6.03375 83.45320313 4.755 83.44546875 3.4375 83.4375 C2.17421875 83.44523437 0.9109375 83.45296875 -0.390625 83.4609375 C-6.55345596 83.44799038 -12.01583609 83.37426543 -17.8125 81.1875 C-17.8125 80.5275 -17.8125 79.8675 -17.8125 79.1875 C-18.4725 79.1875 -19.1325 79.1875 -19.8125 79.1875 C-19.8125 66.3175 -19.8125 53.4475 -19.8125 40.1875 C-20.4725 44.4775 -21.1325 48.7675 -21.8125 53.1875 C-22.1425 53.1875 -22.4725 53.1875 -22.8125 53.1875 C-22.8125 49.2275 -22.8125 45.2675 -22.8125 41.1875 C-24.194375 40.94 -25.57625 40.6925 -27 40.4375 C-31.15021428 39.53414106 -33.71242311 38.18757441 -36.8125 35.1875 C-35.87460306 29.82275319 -33.87042023 25.212168 -31.6875 20.25 C-31.32140625 19.36892578 -30.9553125 18.48785156 -30.578125 17.58007812 C-26.86651706 9.15321315 -21.78935365 4.36693564 -13.24462891 0.88427734 C-8.81821651 -0.3838396 -4.56319315 -0.26797941 0 0 Z " fill="#111110" transform="translate(47.8125,31.8125)"/>
<path d="M0 0 C17.82 0 35.64 0 54 0 C54 0.33 54 0.66 54 1 C52.95199219 1.13277344 51.90398438 1.26554688 50.82421875 1.40234375 C49.44529222 1.58057235 48.06638707 1.75896641 46.6875 1.9375 C45.65206055 2.06801758 45.65206055 2.06801758 44.59570312 2.20117188 C41.59857712 2.59210135 38.87549881 3.0415004 36 4 C35.83967005 9.87876496 36.3907466 15.23388095 37.5 21 C37.64308594 21.77472656 37.78617188 22.54945312 37.93359375 23.34765625 C38.28272329 25.23295579 38.64045316 27.11665939 39 29 C39.66 29 40.32 29 41 29 C41 29.66 41 30.32 41 31 C39.89140625 31.51949219 38.7828125 32.03898437 37.640625 32.57421875 C36.17677028 33.27799506 34.7132458 33.98245855 33.25 34.6875 C32.52039062 35.02716797 31.79078125 35.36683594 31.0390625 35.71679688 C22.66397608 39.79013436 19.87980297 45.81576213 16.1875 54.0625 C15.76791016 54.96033203 15.34832031 55.85816406 14.91601562 56.78320312 C14.52478516 57.65009766 14.13355469 58.51699219 13.73046875 59.41015625 C13.37364014 60.19527588 13.01681152 60.98039551 12.64916992 61.78930664 C11.90421697 64.32618104 12.00723119 65.56799835 13 68 C14.96886739 69.31831751 14.96886739 69.31831751 17.375 70.1875 C18.16648437 70.51105469 18.95796875 70.83460937 19.7734375 71.16796875 C21.50275658 71.81418799 23.24862071 72.4162069 25 73 C25.33 74.65 25.66 76.3 26 78 C26.66 75.36 27.32 72.72 28 70 C28.33 70 28.66 70 29 70 C29.02485249 74.71394473 29.04293186 79.4278507 29.05493164 84.1418457 C29.05993805 85.74308945 29.06674515 87.34432867 29.07543945 88.94555664 C29.08766764 91.25668458 29.09326536 93.56775169 29.09765625 95.87890625 C29.10281754 96.58648575 29.10797882 97.29406525 29.11329651 98.02308655 C29.11378966 102.46408171 28.72076256 106.63302685 28 111 C28.66 111 29.32 111 30 111 C30.495 111.99 30.495 111.99 31 113 C37.60499161 114.53054353 44.38534436 114.18407189 51.125 114.1875 C52.39988281 114.19974609 53.67476562 114.21199219 54.98828125 114.22460938 C56.21160156 114.22654297 57.43492188 114.22847656 58.6953125 114.23046875 C59.80922363 114.23457764 60.92313477 114.23868652 62.07080078 114.24291992 C64.9320519 114.00563497 66.57847455 113.48612014 69 112 C69 114.64 69 117.28 69 120 C46.23 120 23.46 120 0 120 C0 80.4 0 40.8 0 0 Z " fill="#B8B7B9" transform="translate(0,0)"/>
<path d="M0 0 C10.56 0 21.12 0 32 0 C32 15.18 32 30.36 32 46 C27.05 46 22.1 46 17 46 C16.67 44.02 16.34 42.04 16 40 C15.505 42.475 15.505 42.475 15 45 C10.05 45 5.1 45 0 45 C0 30.15 0 15.3 0 0 Z " fill="#6B6A69" transform="translate(32,51)"/>
<path d="M0 0 C0.33 0 0.66 0 1 0 C3.05818089 10.80544969 4.47908491 20.96330325 4 32 C4.66 32 5.32 32 6 32 C6 28.37 6 24.74 6 21 C8.48057628 23.48057628 8.29019005 24.36192464 8.4140625 27.7890625 C8.47207031 29.20058594 8.47207031 29.20058594 8.53125 30.640625 C8.5621875 31.62546875 8.593125 32.6103125 8.625 33.625 C8.68300781 35.11386719 8.68300781 35.11386719 8.7421875 36.6328125 C8.8366314 39.08835385 8.92219875 41.5438841 9 44 C7.68 44 6.36 44 5 44 C4.67 42.35 4.34 40.7 4 39 C3.01 39.66 2.02 40.32 1 41 C-1.79980469 41.25878906 -1.79980469 41.25878906 -5.171875 41.265625 C-6.39390625 41.26820312 -7.6159375 41.27078125 -8.875 41.2734375 C-10.15375 41.26570313 -11.4325 41.25796875 -12.75 41.25 C-14.01328125 41.25773437 -15.2765625 41.26546875 -16.578125 41.2734375 C-22.74095596 41.26049038 -28.20333609 41.18676543 -34 39 C-34 38.34 -34 37.68 -34 37 C-34.66 37 -35.32 37 -36 37 C-35.67 30.73 -35.34 24.46 -35 18 C-34.67 18 -34.34 18 -34 18 C-33.67 19.65 -33.34 21.3 -33 23 C-28.05 22.67 -23.1 22.34 -18 22 C-18 20.35 -18 18.7 -18 17 C-17.34 17 -16.68 17 -16 17 C-14.9375 18.875 -14.9375 18.875 -14 21 C-14.33 21.66 -14.66 22.32 -15 23 C-10.05 23 -5.1 23 0 23 C0 15.41 0 7.82 0 0 Z " fill="#0F0F0F" transform="translate(64,74)"/>
<path d="M0 0 C5.28 0 10.56 0 16 0 C16 15.18 16 30.36 16 46 C11.05 46 6.1 46 1 46 C1 39.12555953 1.09786407 37.99961166 5 33 C3.68 33.66 2.36 34.32 1 35 C1 33.02 1 31.04 1 29 C0.34 28.67 -0.32 28.34 -1 28 C-1.05416188 26.39620659 -1.09286638 24.79188594 -1.125 23.1875 C-1.14820313 22.29417969 -1.17140625 21.40085937 -1.1953125 20.48046875 C-1 18 -1 18 1 15 C3.625 14.8125 3.625 14.8125 6 15 C6 16.32 6 17.64 6 19 C6.66 19 7.32 19 8 19 C8.64870653 12.83850831 8.64870653 12.83850831 6 7.5625 C5.34 7.046875 4.68 6.53125 4 6 C4 5.34 4 4.68 4 4 C2.68 3.67 1.36 3.34 0 3 C0 2.01 0 1.02 0 0 Z " fill="#7D7C7C" transform="translate(48,51)"/>
<path d="M0 0 C2.26328941 3.77214902 2.81813669 7.12054382 2.5 11.5 C1.4575209 14.98624406 0.09036679 18.2305335 -1.5 21.5 C-4.47 21.5 -7.44 21.5 -10.5 21.5 C-11.49 18.86 -12.48 16.22 -13.5 13.5 C-14.16 13.5 -14.82 13.5 -15.5 13.5 C-16.16 14.16 -16.82 14.82 -17.5 15.5 C-17.974375 14.530625 -18.44875 13.56125 -18.9375 12.5625 C-20.20193947 9.69522563 -20.20193947 9.69522563 -21.5 8.5 C-21.89334786 4.95986922 -21.95269651 3.14422196 -19.875 0.1875 C-14.33102506 -3.75164009 -5.77075447 -3.46245268 0 0 Z " fill="#130F0C" transform="translate(56.5,3.5)"/>
<path d="M0 0 C0.33 0 0.66 0 1 0 C1.02485249 4.71394473 1.04293186 9.4278507 1.05493164 14.1418457 C1.05993805 15.74308945 1.06674515 17.34432867 1.07543945 18.94555664 C1.08766764 21.25668458 1.09326536 23.56775169 1.09765625 25.87890625 C1.10281754 26.58648575 1.10797882 27.29406525 1.11329651 28.02308655 C1.11378966 32.46408171 0.72076256 36.63302685 0 41 C0.66 41.33 1.32 41.66 2 42 C1.67 43.32 1.34 44.64 1 46 C-0.99954746 46.04254356 -3.00041636 46.04080783 -5 46 C-6 45 -6 45 -6.09765625 42.05859375 C-6.08605469 40.86363281 -6.07445312 39.66867188 -6.0625 38.4375 C-6.05347656 37.23996094 -6.04445313 36.04242188 -6.03515625 34.80859375 C-6.02355469 33.88175781 -6.01195312 32.95492187 -6 32 C-6.66 32 -7.32 32 -8 32 C-10.439623 21.76229635 -11.40278241 12.5170962 -11 2 C-8 1 -8 1 -5.375 1.625 C-3 3 -3 3 -2.1875 5.625 C-2.125625 6.40875 -2.06375 7.1925 -2 8 C-1.34 5.36 -0.68 2.72 0 0 Z " fill="#402E26" transform="translate(28,70)"/>
<path d="M0 0 C5.28 0 10.56 0 16 0 C16.33 0.99 16.66 1.98 17 3 C17.99 3.66 18.98 4.32 20 5 C19.30132812 5.12117188 18.60265625 5.24234375 17.8828125 5.3671875 C16.97273438 5.53476562 16.06265625 5.70234375 15.125 5.875 C13.76761719 6.11863281 13.76761719 6.11863281 12.3828125 6.3671875 C9.83494012 6.83044703 9.83494012 6.83044703 8 9 C6.71431528 12.5255254 6.90034446 16.03444563 6.9375 19.75 C6.95103516 21.50570312 6.95103516 21.50570312 6.96484375 23.296875 C6.97644531 24.18890625 6.98804688 25.0809375 7 26 C7.66 26 8.32 26 9 26 C9.8723412 28.99480917 10.10829766 31.63575911 10.0625 34.75 C10.05347656 35.54921875 10.04445313 36.3484375 10.03515625 37.171875 C10.02355469 37.77515625 10.01195312 38.3784375 10 39 C9.34 38.01 8.68 37.02 8 36 C7.34 37.98 6.68 39.96 6 42 C5.34 41.34 4.68 40.68 4 40 C2.68 40.66 1.36 41.32 0 42 C0 28.14 0 14.28 0 0 Z " fill="#818180" transform="translate(32,51)"/>
<path d="M0 0 C0.33 0 0.66 0 1 0 C1.66 5.61 2.32 11.22 3 17 C3.33 14.03 3.66 11.06 4 8 C5.32 8.33 6.64 8.66 8 9 C8 8.34 8 7.68 8 7 C6.68 7 5.36 7 4 7 C3.67 5.02 3.34 3.04 3 1 C5.64 1 8.28 1 11 1 C11.20107693 11.17672681 11.14824227 21.12163237 9.71142578 31.21459961 C9.22972277 34.64963153 8.95690602 37.96364173 9 41.42578125 C9 42.60527344 9 43.78476563 9 45 C8 46 8 46 5.4375 46.0625 C4.633125 46.041875 3.82875 46.02125 3 46 C3 45.34 3 44.68 3 44 C4.32 44 5.64 44 7 44 C6.84152588 43.42475586 6.68305176 42.84951172 6.51977539 42.25683594 C6.02086674 40.09060223 5.80111676 38.10677317 5.68359375 35.890625 C5.64169922 35.13652344 5.59980469 34.38242188 5.55664062 33.60546875 C5.51732422 32.82816406 5.47800781 32.05085938 5.4375 31.25 C5.39431641 30.45722656 5.35113281 29.66445312 5.30664062 28.84765625 C5.20097009 26.89862185 5.10002034 24.94933252 5 23 C4.67 25.97 4.34 28.94 4 32 C3.34 32 2.68 32 2 32 C-0.38297872 10.46808511 -0.38297872 10.46808511 0 0 Z " fill="#6C5347" transform="translate(66,74)"/>
<path d="M0 0 C4.95 0 9.9 0 15 0 C15 12.87 15 25.74 15 39 C12.36 37.35 9.72 35.7 7 34 C7.14095064 32.3745692 7.28792087 30.74965949 7.4375 29.125 C7.51871094 28.22007813 7.59992187 27.31515625 7.68359375 26.3828125 C8 24 8 24 9 22 C9.07181821 19.28239892 9.09299506 16.59140612 9.0625 13.875 C9.05798828 13.12089844 9.05347656 12.36679687 9.04882812 11.58984375 C9.03703499 9.72652873 9.01909942 7.86325445 9 6 C8.22269531 5.85691406 7.44539063 5.71382812 6.64453125 5.56640625 C4.12213994 5.02615996 2.24195912 4.24553285 0 3 C0 2.01 0 1.02 0 0 Z " fill="#D1D1CF" transform="translate(48,51)"/>
<path d="M0 0 C2.15238938 3.58731563 2.74176022 7.32560695 2.5 11.5 C1.84 12.16 1.18 12.82 0.5 13.5 C-0.81878578 12.73997083 -2.1298684 11.96656347 -3.4375 11.1875 C-4.16839844 10.75824219 -4.89929688 10.32898437 -5.65234375 9.88671875 C-7.5 8.5 -7.5 8.5 -8.5 5.5 C-9.16 4.84 -9.82 4.18 -10.5 3.5 C-9.84 2.51 -9.18 1.52 -8.5 0.5 C-11.73180698 1.3618152 -13.98261455 1.98261455 -16.375 4.375 C-17.81192515 6.68845478 -17.81192515 6.68845478 -17.5 10.5 C-18.82 9.84 -20.14 9.18 -21.5 8.5 C-21.81944345 4.98612204 -21.93883512 3.12449613 -19.875 0.1875 C-14.33102506 -3.75164009 -5.77075447 -3.46245268 0 0 Z " fill="#1A1715" transform="translate(56.5,3.5)"/>
<path d="M0 0 C1.98 0.66 3.96 1.32 6 2 C5.67 15.86 5.34 29.72 5 44 C4.67 44 4.34 44 4 44 C4 39.71 4 35.42 4 31 C3.34 31 2.68 31 2 31 C-0.41186051 20.87879964 -1.74256689 11.42449678 -1 1 C-0.67 0.67 -0.34 0.34 0 0 Z " fill="#C09577" transform="translate(18,71)"/>
<path d="M0 0 C0.268125 0.639375 0.53625 1.27875 0.8125 1.9375 C1.88667752 4.33131686 1.88667752 4.33131686 5 5 C5 8.3 5 11.6 5 15 C4.34 14.67 3.68 14.34 3 14 C3 12.02 3 10.04 3 8 C1.96875 8.165 0.9375 8.33 -0.125 8.5 C-3.48244326 8.93321848 -6.62336157 9.08235703 -10 9 C-10.66 11.64 -11.32 14.28 -12 17 C-12.66 17 -13.32 17 -14 17 C-14.39683933 6.88059701 -14.39683933 6.88059701 -12 3 C-8.10188939 -0.22986308 -4.95224859 -0.29130874 0 0 Z " fill="#383737" transform="translate(52,56)"/>
<path d="M0 0 C1.79244141 0.01740234 1.79244141 0.01740234 3.62109375 0.03515625 C5.41740234 0.04869141 5.41740234 0.04869141 7.25 0.0625 C8.17683594 0.07410156 9.10367188 0.08570313 10.05859375 0.09765625 C10.05859375 2.07765625 10.05859375 4.05765625 10.05859375 6.09765625 C9.72859375 4.77765625 9.39859375 3.45765625 9.05859375 2.09765625 C6.5859261 2.44210506 6.5859261 2.44210506 4.05859375 3.09765625 C2.84165499 5.53153378 2.73899479 7.51604471 2.49609375 10.22265625 C2.41230469 11.13273437 2.32851563 12.0428125 2.2421875 12.98046875 C2.18160156 13.67914063 2.12101562 14.3778125 2.05859375 15.09765625 C3.04859375 15.42765625 4.03859375 15.75765625 5.05859375 16.09765625 C4.72859375 18.07765625 4.39859375 20.05765625 4.05859375 22.09765625 C5.70859375 21.10765625 7.35859375 20.11765625 9.05859375 19.09765625 C7.68887735 23.09266243 5.80136953 25.89775117 3.05859375 29.09765625 C3.05859375 28.43765625 3.05859375 27.77765625 3.05859375 27.09765625 C2.39859375 27.09765625 1.73859375 27.09765625 1.05859375 27.09765625 C-0.62890625 25.47265625 -0.62890625 25.47265625 -1.94140625 23.09765625 C-1.62890625 19.84765625 -1.62890625 19.84765625 -0.94140625 17.09765625 C-0.28140625 17.09765625 0.37859375 17.09765625 1.05859375 17.09765625 C0.60484375 16.12828125 0.15109375 15.15890625 -0.31640625 14.16015625 C-2.11380629 9.97478187 -3.35884662 5.62220272 -3.94140625 1.09765625 C-2.94140625 0.09765625 -2.94140625 0.09765625 0 0 Z " fill="#595958" transform="translate(44.94140625,63.90234375)"/>
<path d="M0 0 C0 2.64 0 5.28 0 8 C-9.24 8 -18.48 8 -28 8 C-28.33 6.35 -28.66 4.7 -29 3 C-28.25838623 2.98018066 -27.51677246 2.96036133 -26.75268555 2.93994141 C-23.39726166 2.84477072 -20.04246714 2.73505906 -16.6875 2.625 C-15.52025391 2.5940625 -14.35300781 2.563125 -13.15039062 2.53125 C-11.47299805 2.47324219 -11.47299805 2.47324219 -9.76171875 2.4140625 C-8.73006592 2.3826416 -7.69841309 2.3512207 -6.63549805 2.31884766 C-4.01135941 2.00137428 -2.37349778 0 0 0 Z " fill="#C1C1C1" transform="translate(69,112)"/>
<path d="M0 0 C9.81703065 -1.09658321 16.09754139 1.1445638 24 7 C25.36479828 8.30110769 26.70994346 9.62475105 28 11 C27.34 12.32 26.68 13.64 26 15 C23.525 14.505 23.525 14.505 21 14 C20.34 12.02 19.68 10.04 19 8 C18.01 7.896875 17.02 7.79375 16 7.6875 C11.71702837 7.09191294 8.00003629 5.61404973 4 4 C4.33 3.34 4.66 2.68 5 2 C3.35 1.67 1.7 1.34 0 1 C0 0.67 0 0.34 0 0 Z " fill="#1F1D1D" transform="translate(47,33)"/>
<path d="M0 0 C0.99 0.495 0.99 0.495 2 1 C2.625 3.0625 2.625 3.0625 3 5 C4.32 4.34 5.64 3.68 7 3 C8.9451 5.91765 9.45276317 7.62537285 10 11 C12.97 11.33 15.94 11.66 19 12 C19 12.33 19 12.66 19 13 C18.38511719 13.03738281 17.77023438 13.07476562 17.13671875 13.11328125 C15.92435547 13.21189453 15.92435547 13.21189453 14.6875 13.3125 C13.88699219 13.37050781 13.08648437 13.42851562 12.26171875 13.48828125 C9.61182244 14.08782601 8.7983745 15.03861495 7 17 C4.9375 17 4.9375 17 3 16 C1.22832802 12.39909269 0.66271912 9.16761449 0.375 5.1875 C0.30023438 4.21167969 0.22546875 3.23585938 0.1484375 2.23046875 C0.09945312 1.49441406 0.05046875 0.75835937 0 0 Z " fill="#A17457" transform="translate(36,13)"/>
<path d="M0 0 C1.21816406 0.03480469 1.21816406 0.03480469 2.4609375 0.0703125 C3.68683594 0.09738281 3.68683594 0.09738281 4.9375 0.125 C5.87722656 0.15980469 5.87722656 0.15980469 6.8359375 0.1953125 C6.9596875 0.9790625 7.0834375 1.7628125 7.2109375 2.5703125 C7.62711743 5.33589072 7.62711743 5.33589072 9.8359375 7.1953125 C7.06484443 7.24923647 4.29479932 7.28894705 1.5234375 7.3203125 C0.73775391 7.33707031 -0.04792969 7.35382812 -0.85742188 7.37109375 C-1.61474609 7.37753906 -2.37207031 7.38398437 -3.15234375 7.390625 C-4.19708862 7.40633545 -4.19708862 7.40633545 -5.26293945 7.42236328 C-7.1640625 7.1953125 -7.1640625 7.1953125 -10.1640625 5.1953125 C-9.2153125 4.7415625 -8.2665625 4.2878125 -7.2890625 3.8203125 C-4.54434076 2.3930572 -2.99081764 0.26992939 0 0 Z " fill="#B68969" transform="translate(48.1640625,25.8046875)"/>
<path d="M0 0 C0.33 0 0.66 0 1 0 C1.02946035 3.62498242 1.04695131 7.24993332 1.0625 10.875 C1.07087891 11.88820313 1.07925781 12.90140625 1.08789062 13.9453125 C1.10845895 20.36263015 0.78323679 26.62990957 0 33 C-4.66996479 27.11913209 -3.33647097 20.9794311 -2.578125 13.79296875 C-1.2867586 2.57351719 -1.2867586 2.57351719 0 0 Z " fill="#A6A6A6" transform="translate(28,70)"/>
<path d="M0 0 C2.64 0.33 5.28 0.66 8 1 C8.22174933 2.45635371 8.42698698 3.91522956 8.625 5.375 C8.74101563 6.18710938 8.85703125 6.99921875 8.9765625 7.8359375 C8.98429687 8.55007813 8.99203125 9.26421875 9 10 C8.34 10.66 7.68 11.32 7 12 C5.68121422 11.23997083 4.3701316 10.46656347 3.0625 9.6875 C2.33160156 9.25824219 1.60070313 8.82898437 0.84765625 8.38671875 C-1 7 -1 7 -2 4 C-2.66 3.34 -3.32 2.68 -4 2 C-3.34 1.67 -2.68 1.34 -2 1 C-1.34 1.33 -0.68 1.66 0 2 C0 1.34 0 0.68 0 0 Z " fill="#161312" transform="translate(50,5)"/>
<path d="M0 0 C0.33 0 0.66 0 1 0 C1 8.58 1 17.16 1 26 C5.62 26 10.24 26 15 26 C15 26.33 15 26.66 15 27 C10.05 27 5.1 27 0 27 C-0.33 27.66 -0.66 28.32 -1 29 C-1.78514359 24.1258286 -2.16192387 19.45153856 -2.1875 14.5 C-2.20167969 13.2521875 -2.21585938 12.004375 -2.23046875 10.71875 C-1.98647305 6.78173463 -1.21599428 3.72968997 0 0 Z " fill="#191918" transform="translate(31,70)"/>
<path d="M0 0 C1.98 0.66 3.96 1.32 6 2 C5.67 10.91 5.34 19.82 5 29 C4.67 29 4.34 29 4 29 C3.67 23.72 3.34 18.44 3 13 C2.01 12.67 1.02 12.34 0 12 C0 8.04 0 4.08 0 0 Z " fill="#A37251" transform="translate(18,71)"/>
<path d="M0 0 C0.33 0 0.66 0 1 0 C1 14.85 1 29.7 1 45 C-0.98 45 -2.96 45 -5 45 C-4.67 42.36 -4.34 39.72 -4 37 C-3.01 37.33 -2.02 37.66 -1 38 C-0.67 25.46 -0.34 12.92 0 0 Z " fill="#B9B9B8" transform="translate(63,51)"/>
<path d="M0 0 C5.445 1.485 5.445 1.485 11 3 C11.33 4.65 11.66 6.3 12 8 C8.04 8 4.08 8 0 8 C0 5.36 0 2.72 0 0 Z " fill="#E5E5E3" transform="translate(29,112)"/>
<path d="M0 0 C0.99 0.33 1.98 0.66 3 1 C3.125 7.75 3.125 7.75 2 10 C3.98 10 5.96 10 8 10 C8 10.33 8 10.66 8 11 C3.05 11 -1.9 11 -7 11 C-7 9.68 -7 8.36 -7 7 C-5.5459375 6.38125 -5.5459375 6.38125 -4.0625 5.75 C-0.87739901 4.35100832 -0.87739901 4.35100832 -0.125 1.8125 C-0.08375 1.214375 -0.0425 0.61625 0 0 Z " fill="#666665" transform="translate(56,86)"/>
<path d="M0 0 C1.65 0.99 3.3 1.98 5 3 C5.3125 6.1875 5.3125 6.1875 5 9 C5.66 9.33 6.32 9.66 7 10 C6.67 11.32 6.34 12.64 6 14 C4.02 14 2.04 14 0 14 C0 9.38 0 4.76 0 0 Z " fill="#704B39" transform="translate(23,102)"/>
<path d="M0 0 C2.64 0 5.28 0 8 0 C8 6.27 8 12.54 8 19 C7.67 19 7.34 19 7 19 C6.67 14.71 6.34 10.42 6 6 C4.35 6 2.7 6 1 6 C0.67 4.02 0.34 2.04 0 0 Z " fill="#6E4735" transform="translate(69,75)"/>
<path d="M0 0 C0.33 0 0.66 0 1 0 C1.33 12.54 1.66 25.08 2 38 C3.32 37.34 4.64 36.68 6 36 C6.33 36.99 6.66 37.98 7 39 C6.34 39.99 5.68 40.98 5 42 C4.67 41.34 4.34 40.68 4 40 C2.68 40.66 1.36 41.32 0 42 C0 28.14 0 14.28 0 0 Z " fill="#767574" transform="translate(32,51)"/>
<path d="M0 0 C2.48057628 2.48057628 2.29019005 3.36192464 2.4140625 6.7890625 C2.45273438 7.73007813 2.49140625 8.67109375 2.53125 9.640625 C2.5621875 10.62546875 2.593125 11.6103125 2.625 12.625 C2.66367188 13.61757812 2.70234375 14.61015625 2.7421875 15.6328125 C2.8366314 18.08835385 2.92219875 20.5438841 3 23 C1.68 23 0.36 23 -1 23 C-2.125 16.25 -2.125 16.25 -1 14 C-0.34 14 0.32 14 1 14 C0.83628906 13.44828125 0.67257813 12.8965625 0.50390625 12.328125 C-0.05760414 9.73385993 -0.09739008 7.40164589 -0.0625 4.75 C-0.05347656 3.85796875 -0.04445313 2.9659375 -0.03515625 2.046875 C-0.02355469 1.37140625 -0.01195313 0.6959375 0 0 Z " fill="#312019" transform="translate(70,95)"/>
<path d="M0 0 C2.875 -0.125 2.875 -0.125 6 0 C8 2 8 2 8.125 4.625 C8.08375 5.40875 8.0425 6.1925 8 7 C5.6875 7.6875 5.6875 7.6875 3 8 C1.1875 6.875 1.1875 6.875 0 5 C-0.1875 2.3125 -0.1875 2.3125 0 0 Z " fill="#9E9E9F" transform="translate(48,74)"/>
<path d="M0 0 C2 0.66666667 4 1.33333333 6 2 C6 2.66 6 3.32 6 4 C3.69 4.66 1.38 5.32 -1 6 C-1 6.99 -1 7.98 -1 9 C-1.31669821 11.33564933 -1.64820803 13.6693782 -2 16 C-2.66 16 -3.32 16 -4 16 C-4.37804878 6.3597561 -4.37804878 6.3597561 -2 2 C-1.34 1.34 -0.68 0.68 0 0 Z " fill="#4D4C4B" transform="translate(42,57)"/>
<path d="M0 0 C3.3 0 6.6 0 10 0 C10 1.65 10 3.3 10 5 C7.03 5 4.06 5 1 5 C0.67 3.35 0.34 1.7 0 0 Z " fill="#838281" transform="translate(40,115)"/>
<path d="M0 0 C-0.33 1.32 -0.66 2.64 -1 4 C-2.32 3.67 -3.64 3.34 -5 3 C-5.33 3.99 -5.66 4.98 -6 6 C-9.51716303 6 -10.37121748 5.17554415 -13 3 C-11.5903653 2.29819469 -10.17192359 1.61406042 -8.75 0.9375 C-7.96109375 0.55464844 -7.1721875 0.17179687 -6.359375 -0.22265625 C-3.74006478 -1.08564091 -2.55144824 -0.93045933 0 0 Z " fill="#1E1D1D" transform="translate(41,33)"/>
<path d="M0 0 C0.33 0 0.66 0 1 0 C1.03738281 0.69867188 1.07476563 1.39734375 1.11328125 2.1171875 C1.21189453 3.48230469 1.21189453 3.48230469 1.3125 4.875 C1.37050781 5.77992187 1.42851562 6.68484375 1.48828125 7.6171875 C1.7882039 10.36221601 1.7882039 10.36221601 5 12 C5.29296875 14.8203125 5.29296875 14.8203125 5.1875 18.125 C5.16042969 19.22070312 5.13335938 20.31640625 5.10546875 21.4453125 C5.07066406 22.28835937 5.03585938 23.13140625 5 24 C4.67 24 4.34 24 4 24 C3.67 21.69 3.34 19.38 3 17 C2.34 17.66 1.68 18.32 1 19 C-0.26582219 15.13276369 -0.1118765 11.26848738 -0.0625 7.25 C-0.05798828 6.55261719 -0.05347656 5.85523437 -0.04882812 5.13671875 C-0.0371002 3.42444197 -0.01916653 1.71220967 0 0 Z " fill="#B58A6B" transform="translate(17,72)"/>
<path d="M0 0 C2.31 0 4.62 0 7 0 C7.268125 0.639375 7.53625 1.27875 7.8125 1.9375 C8.88667752 4.33131686 8.88667752 4.33131686 12 5 C12 8.3 12 11.6 12 15 C11.34 14.67 10.68 14.34 10 14 C9.855625 13.030625 9.71125 12.06125 9.5625 11.0625 C9.376875 10.051875 9.19125 9.04125 9 8 C8.01 7.34 7.02 6.68 6 6 C5.690625 5.34 5.38125 4.68 5.0625 4 C3.75812758 1.54471073 2.53372703 1.01349081 0 0 Z " fill="#464645" transform="translate(45,56)"/>
<path d="M0 0 C2.625 -0.1875 2.625 -0.1875 5 0 C5.33 1.98 5.66 3.96 6 6 C3.69 6.33 1.38 6.66 -1 7 C-1.625 5.1875 -1.625 5.1875 -2 3 C-1.34 2.01 -0.68 1.02 0 0 Z " fill="#B8B7B8" transform="translate(49,66)"/>
<path d="M0 0 C0.33 0 0.66 0 1 0 C1 3.3 1 6.6 1 10 C-0.98 10 -2.96 10 -5 10 C-5 5.88168014 -2.91010261 2.91010261 0 0 Z " fill="#9B9B9C" transform="translate(95,110)"/>
<path d="M0 0 C2 3.75 2 3.75 2 6 C3.32 6 4.64 6 6 6 C6 6.66 6 7.32 6 8 C5.01 8 4.02 8 3 8 C2.67 11.63 2.34 15.26 2 19 C-0.2249236 15.6626146 -0.39081861 13.99717615 -0.6875 10.0625 C-0.77386719 9.02222656 -0.86023438 7.98195313 -0.94921875 6.91015625 C-0.99415079 4.33520501 -0.77952037 2.432338 0 0 Z " fill="#372218" transform="translate(68,75)"/>
<path d="M0 0 C0.28875 0.61875 0.5775 1.2375 0.875 1.875 C1.93720042 4.13325765 1.93720042 4.13325765 4 6 C-0.29 6 -4.58 6 -9 6 C-3.85714286 0.42857143 -3.85714286 0.42857143 0 0 Z " fill="#C9A084" transform="translate(54,27)"/>
<path d="M0 0 C0 1.98 0 3.96 0 6 C-0.33 4.68 -0.66 3.36 -1 2 C-3.44480079 2.18828772 -3.44480079 2.18828772 -6 3 C-7.36020151 4.96758273 -7.36020151 4.96758273 -8 7 C-9.32 7 -10.64 7 -12 7 C-11.67 5.02 -11.34 3.04 -11 1 C-9.54182203 0.83197949 -8.0834516 0.66562857 -6.625 0.5 C-5.81289063 0.4071875 -5.00078125 0.314375 -4.1640625 0.21875 C-2 0 -2 0 0 0 Z " fill="#747372" transform="translate(55,64)"/>
<path d="M0 0 C3.875 1.875 3.875 1.875 5 3 C5.04063832 4.66617115 5.042721 6.33388095 5 8 C3.02 8 1.04 8 -1 8 C-0.67 5.36 -0.34 2.72 0 0 Z " fill="#868585" transform="translate(59,88)"/>
<path d="M0 0 C8.35010941 0.35010941 8.35010941 0.35010941 11.0625 3.0625 C11.371875 3.701875 11.68125 4.34125 12 5 C9.69 4.67 7.38 4.34 5 4 C5 4.66 5 5.32 5 6 C4.34 6 3.68 6 3 6 C2.814375 5.071875 2.814375 5.071875 2.625 4.125 C2.12802644 1.80879168 2.12802644 1.80879168 0 0 Z " fill="#272524" transform="translate(45,1)"/>
<path d="M0 0 C0.66 0.33 1.32 0.66 2 1 C2.40729228 3.32156597 2.74438677 5.6568787 3 8 C1.68 7.34 0.36 6.68 -1 6 C-1.33 6.33 -1.66 6.66 -2 7 C-2.66 6.67 -3.32 6.34 -4 6 C-4 5.01 -4 4.02 -4 3 C-3.01 3 -2.02 3 -1 3 C-0.67 2.01 -0.34 1.02 0 0 Z " fill="#626261" transform="translate(44,88)"/>
<path d="M0 0 C2.97 0.33 5.94 0.66 9 1 C8.01 1.495 8.01 1.495 7 2 C7 2.99 7 3.98 7 5 C7.66 5.33 8.32 5.66 9 6 C5.65626525 5.44271087 2.96687001 4.64826111 0 3 C0 2.01 0 1.02 0 0 Z " fill="#C7C6C6" transform="translate(48,51)"/>
<path d="M0 0 C-2.55068845 2.35448165 -3.71017358 2.98327924 -7.25 3.1875 C-8.1575 3.125625 -9.065 3.06375 -10 3 C-10 2.01 -10 1.02 -10 0 C-6.30581799 -1.231394 -3.7943739 -0.64432764 0 0 Z " fill="#A2A2A3" transform="translate(67,116)"/>
<path d="M0 0 C2.35953094 2.35953094 2.49141413 3.77895617 3 7 C5.97 7.33 8.94 7.66 12 8 C12 8.33 12 8.66 12 9 C8.37 9.33 4.74 9.66 1 10 C1 8.35 1 6.7 1 5 C0.34 5 -0.32 5 -1 5 C-1.33 4.01 -1.66 3.02 -2 2 C-1.34 2 -0.68 2 0 2 C0 1.34 0 0.68 0 0 Z " fill="#6F4834" transform="translate(43,17)"/>
<path d="M0 0 C0.33 0 0.66 0 1 0 C1.33 4.95 1.66 9.9 2 15 C1.01 15.33 0.02 15.66 -1 16 C-1.02701408 13.89590361 -1.04640223 11.79170822 -1.0625 9.6875 C-1.07410156 8.51574219 -1.08570312 7.34398438 -1.09765625 6.13671875 C-1 3 -1 3 0 0 Z " fill="#553526" transform="translate(24,73)"/>
<path d="M0 0 C2.475 0.495 2.475 0.495 5 1 C5 1.66 5 2.32 5 3 C5.99 2.67 6.98 2.34 8 2 C7.34 3.98 6.68 5.96 6 8 C5.67 7.34 5.34 6.68 5 6 C4.34 6 3.68 6 3 6 C0 2.53846154 0 2.53846154 0 0 Z " fill="#484847" transform="translate(43,85)"/>
<path d="M0 0 C0.33 0 0.66 0 1 0 C1 1.65 1 3.3 1 5 C-1.375 5.625 -1.375 5.625 -4 6 C-4.66 5.34 -5.32 4.68 -6 4 C-5.34 3.01 -4.68 2.02 -4 1 C-3.01 1.33 -2.02 1.66 -1 2 C-0.67 1.34 -0.34 0.68 0 0 Z " fill="#B2B2B4" transform="translate(55,76)"/>
<path d="M0 0 C0.66 1.32 1.32 2.64 2 4 C0.125 5.0625 0.125 5.0625 -2 6 C-2.66 5.67 -3.32 5.34 -4 5 C-4 3.68 -4 2.36 -4 1 C-2.68 0.67 -1.36 0.34 0 0 Z " fill="#906145" transform="translate(43,24)"/>
<path d="M0 0 C2.29013653 3.4352048 2.17842973 4.985331 2 9 C-0.475 8.01 -0.475 8.01 -3 7 C-2.67 5.68 -2.34 4.36 -2 3 C-1.34 3 -0.68 3 0 3 C0 2.01 0 1.02 0 0 Z " fill="#2B2928" transform="translate(57,6)"/>
<path d="M0 0 C1.65 1.65 3.3 3.3 5 5 C4.34 5.66 3.68 6.32 3 7 C2.34 7 1.68 7 1 7 C0.34 7.66 -0.32 8.32 -1 9 C-1.33 7.68 -1.66 6.36 -2 5 C-1.01 5 -0.02 5 1 5 C0.67 3.35 0.34 1.7 0 0 Z " fill="#231711" transform="translate(40,10)"/>
<path d="M0 0 C3.3 0 6.6 0 10 0 C9.01 0.33 8.02 0.66 7 1 C7 1.66 7 2.32 7 3 C4.03 2.505 4.03 2.505 1 2 C0.67 2.99 0.34 3.98 0 5 C0 3.35 0 1.7 0 0 Z " fill="#B7B6B6" transform="translate(50,115)"/>
<path d="M0 0 C2.31 0.33 4.62 0.66 7 1 C7.33 2.65 7.66 4.3 8 6 C4.30581799 4.768606 2.64890254 2.79208646 0 0 Z " fill="#B9B9B9" transform="translate(33,114)"/>
<path d="M0 0 C0.99 0.33 1.98 0.66 3 1 C3 3.64 3 6.28 3 9 C2.67 8.34 2.34 7.68 2 7 C1.34 7 0.68 7 0 7 C0 4.69 0 2.38 0 0 Z " fill="#181615" transform="translate(28,104)"/>
<path d="M0 0 C0.33 0 0.66 0 1 0 C1.25 2.3125 1.25 2.3125 1 5 C-0.8125 6.8125 -0.8125 6.8125 -3 8 C-3.99 8 -4.98 8 -6 8 C-6 7.34 -6 6.68 -6 6 C-5.01 5.67 -4.02 5.34 -3 5 C-2.67 4.34 -2.34 3.68 -2 3 C-1.34 3 -0.68 3 0 3 C0 2.01 0 1.02 0 0 Z " fill="#9A9A9B" transform="translate(55,85)"/>
<path d="M0 0 C3.40667322 0.44824648 5.07914607 1.05276405 8 3 C7.01 3 6.02 3 5 3 C4.67 3.66 4.34 4.32 4 5 C3.67 4.01 3.34 3.02 3 2 C0.98491642 1.26676204 0.98491642 1.26676204 -1 1 C-0.67 0.67 -0.34 0.34 0 0 Z " fill="#353433" transform="translate(45,57)"/>
<path d="M0 0 C1.23556641 0.01740234 1.23556641 0.01740234 2.49609375 0.03515625 C3.32238281 0.04417969 4.14867187 0.05320312 5 0.0625 C5.63808594 0.07410156 6.27617188 0.08570312 6.93359375 0.09765625 C6.60359375 0.75765625 6.27359375 1.41765625 5.93359375 2.09765625 C2.49609375 2.84765625 2.49609375 2.84765625 -1.06640625 3.09765625 C-1.72640625 2.43765625 -2.38640625 1.77765625 -3.06640625 1.09765625 C-2.06640625 0.09765625 -2.06640625 0.09765625 0 0 Z " fill="#B08162" transform="translate(48.06640625,25.90234375)"/>
<path d="M0 0 C0 1.32 0 2.64 0 4 C-1.98 4 -3.96 4 -6 4 C-5.67 3.01 -5.34 2.02 -5 1 C-2 0 -2 0 0 0 Z " fill="#885F4B" transform="translate(29,112)"/>
<path d="M0 0 C0.125 6.75 0.125 6.75 -1 9 C-1.66 8.67 -2.32 8.34 -3 8 C-3 5.69 -3 3.38 -3 1 C-1 0 -1 0 0 0 Z " fill="#6D5144" transform="translate(76,98)"/>
<path d="M0 0 C1.06546953 3.1964086 1.07427838 5.65747276 1 9 C0.67 8.34 0.34 7.68 0 7 C-0.99 7.33 -1.98 7.66 -3 8 C-3 7.01 -3 6.02 -3 5 C-2.34 5 -1.68 5 -1 5 C-0.67 3.35 -0.34 1.7 0 0 Z " fill="#83553C" transform="translate(23,73)"/>
<path d="M0 0 C3.875 1.875 3.875 1.875 5 3 C5.04063832 4.66617115 5.042721 6.33388095 5 8 C4.34 7.67 3.68 7.34 3 7 C3 6.01 3 5.02 3 4 C2.34 3.67 1.68 3.34 1 3 C0.67 2.01 0.34 1.02 0 0 Z " fill="#9C9B9C" transform="translate(59,88)"/>
<path d="M0 0 C1.65 0 3.3 0 5 0 C5.33 1.65 5.66 3.3 6 5 C3.5625 4.1875 3.5625 4.1875 1 3 C0.67 2.01 0.34 1.02 0 0 Z " fill="#A7A7A9" transform="translate(49,66)"/>
<path d="M0 0 C1.4540625 0.0309375 1.4540625 0.0309375 2.9375 0.0625 C1.6175 0.3925 0.2975 0.7225 -1.0625 1.0625 C-1.3925 3.0425 -1.7225 5.0225 -2.0625 7.0625 C-2.3925 7.0625 -2.7225 7.0625 -3.0625 7.0625 C-3.44383299 5.0710944 -3.77575582 3.06970923 -4.0625 1.0625 C-3.0625 0.0625 -3.0625 0.0625 0 0 Z " fill="#5F5F5E" transform="translate(45.0625,63.9375)"/>
<path d="M0 0 C1.98 0.99 1.98 0.99 4 2 C4 3.32 4 4.64 4 6 C2.68 5.34 1.36 4.68 0 4 C0 2.68 0 1.36 0 0 Z " fill="#2D2926" transform="translate(35,8)"/>
</svg>
