<?xml version="1.0" encoding="UTF-8"?>
<svg version="1.1" xmlns="http://www.w3.org/2000/svg" width="92" height="115">
<path d="M0 0 C30.36 0 60.72 0 92 0 C92 37.95 92 75.9 92 115 C61.64 115 31.28 115 0 115 C0 77.05 0 39.1 0 0 Z " fill="#ADADB1" transform="translate(0,0)"/>
<path d="M0 0 C9.25661111 5.45609941 12.71098565 11.68053309 15.86328125 21.7265625 C16.14429687 22.57669922 16.4253125 23.42683594 16.71484375 24.30273438 C17.10542969 25.53540039 17.10542969 25.53540039 17.50390625 26.79296875 C17.74141602 27.53619385 17.97892578 28.27941895 18.22363281 29.04516602 C18.67823621 31.51728561 18.63220486 32.86116155 17.61328125 35.1640625 C15.55078125 36.4140625 15.55078125 36.4140625 13.61328125 37.1640625 C13.61851807 37.74897461 13.62375488 38.33388672 13.62915039 38.93652344 C13.64998283 41.59569213 13.66296132 44.25484361 13.67578125 46.9140625 C13.68416016 47.83445313 13.69253906 48.75484375 13.70117188 49.703125 C13.70439453 50.59257813 13.70761719 51.48203125 13.7109375 52.3984375 C13.71617432 53.21538086 13.72141113 54.03232422 13.72680664 54.87402344 C13.61556209 57.11805328 13.16851329 58.99534469 12.61328125 61.1640625 C12.48214395 62.73821706 12.3910232 64.31602578 12.33203125 65.89453125 C12.27595703 67.22194336 12.27595703 67.22194336 12.21875 68.57617188 C12.14799281 70.4381342 12.07768586 72.30011368 12.0078125 74.16210938 C11.97042969 75.04318359 11.93304688 75.92425781 11.89453125 76.83203125 C11.86423828 77.63922607 11.83394531 78.4464209 11.80273438 79.27807617 C11.61328125 81.1640625 11.61328125 81.1640625 10.61328125 82.1640625 C8.9471101 82.20470082 7.2794003 82.2067835 5.61328125 82.1640625 C5.61328125 79.8540625 5.61328125 77.5440625 5.61328125 75.1640625 C4.62328125 75.8240625 3.63328125 76.4840625 2.61328125 77.1640625 C0.21240234 77.40698242 0.21240234 77.40698242 -2.61328125 77.39453125 C-4.16208984 77.39163086 -4.16208984 77.39163086 -5.7421875 77.38867188 C-6.82113281 77.37642578 -7.90007813 77.36417969 -9.01171875 77.3515625 C-10.06746094 77.35091797 -11.12320313 77.35027344 -12.2109375 77.34960938 C-28.94203741 77.25631328 -28.94203741 77.25631328 -32.11006165 74.86112976 C-34.36004479 71.87021488 -33.74792107 68.15327129 -33.6796875 64.55859375 C-33.67544266 63.71938889 -33.67119781 62.88018402 -33.66682434 62.01554871 C-33.65003339 59.33556005 -33.61238105 56.6563238 -33.57421875 53.9765625 C-33.55917242 52.15951607 -33.54548393 50.34245785 -33.53320312 48.52539062 C-33.50012857 44.07132474 -33.44834388 39.61782118 -33.38671875 35.1640625 C-34.04671875 39.4540625 -34.70671875 43.7440625 -35.38671875 48.1640625 C-35.71671875 48.1640625 -36.04671875 48.1640625 -36.38671875 48.1640625 C-36.38671875 44.5340625 -36.38671875 40.9040625 -36.38671875 37.1640625 C-37.21171875 37.1021875 -38.03671875 37.0403125 -38.88671875 36.9765625 C-43.39024812 35.93110033 -46.61329228 33.75949035 -50.38671875 31.1640625 C-49.30727132 28.49576548 -48.22327936 25.8294622 -47.13671875 23.1640625 C-46.68619141 22.04837891 -46.68619141 22.04837891 -46.2265625 20.91015625 C-40.07732454 5.86414847 -40.07732454 5.86414847 -34.94921875 2.7890625 C-34.20800781 2.32757813 -33.46679688 1.86609375 -32.703125 1.390625 C-23.42806457 -3.52062116 -9.64518695 -4.73126075 0 0 Z " fill="#121111" transform="translate(60.38671875,32.8359375)"/>
<path d="M0 0 C15.51 0 31.02 0 47 0 C43 2 43 2 39.375 3 C35.96285798 3.71908078 35.96285798 3.71908078 34 6 C33.94019242 8.05118698 33.94019242 8.05118698 34.3125 10.3125 C34.42207031 11.12203125 34.53164063 11.9315625 34.64453125 12.765625 C35.03069044 15.19291136 35.50614607 17.59246208 36 20 C36.36548768 22.66355408 36.68322091 25.33000481 37 28 C37.66 28 38.32 28 39 28 C39 28.66 39 29.32 39 30 C37.31970703 30.79664063 37.31970703 30.79664063 35.60546875 31.609375 C34.1325522 32.32237919 32.65991018 33.0359507 31.1875 33.75 C30.44951172 34.09804688 29.71152344 34.44609375 28.95117188 34.8046875 C28.23896484 35.15273438 27.52675781 35.50078125 26.79296875 35.859375 C25.81106567 36.33068848 25.81106567 36.33068848 24.80932617 36.81152344 C21.03924808 39.28794229 19.442864 42.93290295 17.73828125 46.984375 C17.34189453 47.91894531 16.94550781 48.85351562 16.53710938 49.81640625 C16.13298828 50.78449219 15.72886719 51.75257812 15.3125 52.75 C14.89677734 53.73355469 14.48105469 54.71710937 14.05273438 55.73046875 C13.03021179 58.15161419 12.0128336 60.57478916 11 63 C14.71940442 66.17319818 17.69592264 67.77026361 22.328125 69.09375 C24 70 24 70 24.734375 72.09375 C24.82203125 72.7228125 24.9096875 73.351875 25 74 C25.66 71.69 26.32 69.38 27 67 C27.33 67 27.66 67 28 67 C27.98952637 68.17095215 27.97905273 69.3419043 27.96826172 70.54833984 C27.93212503 74.88310705 27.90912267 79.21786089 27.89013672 83.55273438 C27.88006466 85.43068682 27.86640638 87.30862353 27.84912109 89.18652344 C27.82492547 91.8822009 27.81352917 94.57767146 27.8046875 97.2734375 C27.79436493 98.11619232 27.78404236 98.95894714 27.77340698 99.82723999 C27.77300856 101.88621247 27.87742412 103.94467935 28 106 C32.47164864 110.47164864 42.14316907 109.12924339 48.17578125 109.13671875 C49.75939453 109.13091797 49.75939453 109.13091797 51.375 109.125 C52.45394531 109.12886719 53.53289063 109.13273437 54.64453125 109.13671875 C55.67707031 109.13542969 56.70960937 109.13414063 57.7734375 109.1328125 C58.70591309 109.13168457 59.63838867 109.13055664 60.59912109 109.12939453 C63.1461193 109.09835726 63.1461193 109.09835726 66 108 C66 110.31 66 112.62 66 115 C44.22 115 22.44 115 0 115 C0 77.05 0 39.1 0 0 Z " fill="#B7B7B8" transform="translate(0,0)"/>
<path d="M0 0 C3.54164915 -0.0292067 7.08326697 -0.04686814 10.625 -0.0625 C11.62402344 -0.07087891 12.62304688 -0.07925781 13.65234375 -0.08789062 C24.36524175 -0.1233638 24.36524175 -0.1233638 28 1 C29.91977692 3.95324128 30.24575548 6.28948001 30.22705078 9.76855469 C30.22689972 10.70922791 30.22674866 11.64990112 30.22659302 12.61907959 C30.21627045 13.62650208 30.20594788 14.63392456 30.1953125 15.671875 C30.1924826 16.70942932 30.18965271 17.74698364 30.18673706 18.815979 C30.17554865 22.12743701 30.15044627 25.43862384 30.125 28.75 C30.11496848 30.99608984 30.10584293 33.24218393 30.09765625 35.48828125 C30.0756137 40.99227991 30.04214932 46.49612058 30 52 C26.96256716 52.333999 23.92479908 52.66417571 20.88671875 52.9921875 C19.60516907 53.13370239 19.60516907 53.13370239 18.29772949 53.27807617 C12.49428266 53.90072166 6.84095276 54.19150665 1 54 C-0.25274723 51.49450555 -0.12029624 49.80264368 -0.11352539 46.99951172 C-0.11344986 45.95858368 -0.11337433 44.91765564 -0.11329651 43.84518433 C-0.10813522 42.71807037 -0.10297394 41.59095642 -0.09765625 40.4296875 C-0.0962413 39.27832306 -0.09482635 38.12695862 -0.09336853 36.94070435 C-0.08775716 33.25211014 -0.0752027 29.56357595 -0.0625 25.875 C-0.05748647 23.37890712 -0.05292331 20.8828133 -0.04882812 18.38671875 C-0.03778403 12.25779191 -0.0210348 6.12890024 0 0 Z " fill="#23102A" transform="translate(31,44)"/>
<path d="M0 0 C0.33 0 0.66 0 1 0 C1.02505615 0.65484375 1.0501123 1.3096875 1.07592773 1.984375 C1.19292655 4.98973236 1.31517635 7.99485485 1.4375 11 C1.47681641 12.02996094 1.51613281 13.05992188 1.55664062 14.12109375 C1.34993681 24.09410022 1.34993681 24.09410022 4.5625 33 C5.036875 33.33 5.51125 33.66 6 34 C6.33 33.34 6.66 32.68 7 32 C7 32.66 7 33.32 7 34 C8.30195312 33.855625 9.60390625 33.71125 10.9453125 33.5625 C12.67185676 33.37483215 14.39842029 33.18734149 16.125 33 C16.9809375 32.90460938 17.836875 32.80921875 18.71875 32.7109375 C19.55664062 32.62070313 20.39453125 32.53046875 21.2578125 32.4375 C22.0223877 32.35371094 22.78696289 32.26992187 23.57470703 32.18359375 C26.37579047 31.9715528 29.19090231 32 32 32 C32 27.05 32 22.1 32 17 C32.99 17 33.98 17 35 17 C36.32719886 23.96779403 36.08825381 30.92988911 36 38 C36.66 38 37.32 38 38 38 C38.33 35.69 38.66 33.38 39 31 C39.33 31 39.66 31 40 31 C40.495 39.91 40.495 39.91 41 49 C40.01 49 39.02 49 38 49 C38 47.02 38 45.04 38 43 C37.44981201 43.48823242 36.89962402 43.97646484 36.33276367 44.47949219 C33.52374553 46.31042521 32.00129791 46.36164311 28.67578125 46.328125 C27.64646484 46.32296875 26.61714844 46.3178125 25.55664062 46.3125 C24.48607422 46.291875 23.41550781 46.27125 22.3125 46.25 C20.7356543 46.24226563 20.7356543 46.24226563 19.12695312 46.234375 C2.35569074 46.06739292 2.35569074 46.06739292 -0.72436523 43.64233398 C-2.77547951 41.00159796 -2.31871481 38.60050371 -2.25 35.3125 C-2.23831787 34.63493652 -2.22663574 33.95737305 -2.21459961 33.25927734 C-2.16366767 30.83854346 -2.08338102 28.41983304 -2 26 C-1.9685791 24.98760254 -1.9371582 23.97520508 -1.90478516 22.93212891 C-1.8003622 19.66266082 -1.6845178 16.39385698 -1.5625 13.125 C-1.52350586 12.06063721 -1.48451172 10.99627441 -1.44433594 9.8996582 C-1.40211914 8.90409912 -1.35990234 7.90854004 -1.31640625 6.8828125 C-1.27974854 5.98965332 -1.24309082 5.09649414 -1.20532227 4.17626953 C-1 2 -1 2 0 0 Z " fill="#100F0E" transform="translate(29,64)"/>
<path d="M0 0 C6 0 6 0 9 2 C9.99 2.144375 10.98 2.28875 12 2.4375 C15.20677236 3.03876982 16.02169341 3.52711676 18 6 C18.66 6.66 19.32 7.32 20 8 C18.35 8.66 16.7 9.32 15 10 C15.33 10.99 15.66 11.98 16 13 C15.0625 15.1875 15.0625 15.1875 14 17 C14.99 17.33 15.98 17.66 17 18 C17.12375 19.85625 17.12375 19.85625 17.25 21.75 C17.63475459 24.98882964 17.90024003 25.87907883 20.0625 28.5 C21.0215625 29.2425 21.0215625 29.2425 22 30 C20.35 30.66 18.7 31.32 17 32 C16.34 30.68 15.68 29.36 15 28 C14.67 29.98 14.34 31.96 14 34 C12.35 34 10.7 34 9 34 C8.67 34.66 8.34 35.32 8 36 C7.38125 36.5775 6.7625 37.155 6.125 37.75 C3.72365526 40.29260031 2.44030916 42.83131984 1 46 C0.67 46 0.34 46 0 46 C0 30.82 0 15.64 0 0 Z " fill="#471C56" transform="translate(31,50)"/>
<path d="M0 0 C0.33 0 0.66 0 1 0 C1.02473065 5.62336914 1.04287459 11.24670657 1.05493164 16.87011719 C1.05995841 18.78288321 1.06678077 20.6956454 1.07543945 22.60839844 C1.08757748 25.3587336 1.0932449 28.10901793 1.09765625 30.859375 C1.10281754 31.71368103 1.10797882 32.56798706 1.11329651 33.44818115 C1.11337204 34.24870911 1.11344757 35.04923706 1.11352539 35.87402344 C1.115746 36.57573669 1.11796661 37.27744995 1.12025452 38.00042725 C0.9936281 40.10595088 0.57320021 41.97407628 0 44 C-2.31 43.34 -4.62 42.68 -7 42 C-7.12846313 41.09290283 -7.12846313 41.09290283 -7.25952148 40.16748047 C-7.65143032 37.40321329 -8.04445583 34.63910597 -8.4375 31.875 C-8.57220703 30.92367187 -8.70691406 29.97234375 -8.84570312 28.9921875 C-9.38251083 25.22144068 -9.91787268 21.46100801 -10.5859375 17.7109375 C-11.04633119 14.69666186 -11.16835182 11.79839045 -11.1875 8.75 C-11.20167969 7.71359375 -11.21585938 6.6771875 -11.23046875 5.609375 C-11 3 -11 3 -9 1 C-6.0625 1.75 -6.0625 1.75 -3 3 C-2.125 5.125 -2.125 5.125 -2 7 C-1.34 4.69 -0.68 2.38 0 0 Z " fill="#714A37" transform="translate(27,67)"/>
<path d="M0 0 C2.20700934 3.83827712 2.15039937 7.18147499 1.4375 11.5 C0.32462695 14.67552568 -1.03214496 17.48711351 -2.5625 20.5 C-5.5325 20.5 -8.5025 20.5 -11.5625 20.5 C-12.24609375 17.42382812 -12.24609375 17.42382812 -12.9296875 14.34765625 C-13.39211523 12.29299706 -13.39211523 12.29299706 -15.5625 11.5 C-15.8925 12.49 -16.2225 13.48 -16.5625 14.5 C-19.36230627 10.3002906 -21.23881283 6.6399775 -20.5625 1.5 C-18.96864838 -0.97932475 -17.77433712 -1.43947511 -14.9375 -2.25 C-9.61894607 -2.64396696 -4.69441104 -2.74794792 0 0 Z " fill="#140F0C" transform="translate(54.5625,3.5)"/>
<path d="M0 0 C2.56161093 3.84241639 2.25841178 6.99245125 2.1875 11.4375 C2.18685547 12.20126953 2.18621094 12.96503906 2.18554688 13.75195312 C2.14098557 19.44094576 2.14098557 19.44094576 1.50708008 21.95458984 C0.9377931 24.25092412 0.80707069 26.36718552 0.71875 28.73046875 C0.68136719 29.61541016 0.64398438 30.50035156 0.60546875 31.41210938 C0.53471156 33.2740717 0.46440461 35.13605118 0.39453125 36.99804688 C0.35714844 37.87912109 0.31976563 38.76019531 0.28125 39.66796875 C0.25095703 40.47516357 0.22066406 41.2823584 0.18945312 42.11401367 C0 44 0 44 -1 45 C-2.66617115 45.04063832 -4.33388095 45.042721 -6 45 C-6.33 42.36 -6.66 39.72 -7 37 C-6.34 37 -5.68 37 -5 37 C-5 38.98 -5 40.96 -5 43 C-4.01 43 -3.02 43 -2 43 C-2.33 42.34 -2.66 41.68 -3 41 C-3.22858114 38.9625237 -3.41024278 36.91959697 -3.5625 34.875 C-3.64628906 33.77929688 -3.73007813 32.68359375 -3.81640625 31.5546875 C-3.87699219 30.71164063 -3.93757813 29.86859375 -4 29 C-4.33 29.99 -4.66 30.98 -5 32 C-5.66 32 -6.32 32 -7 32 C-7.34153092 28.70913156 -7.67166646 25.41720923 -8 22.125 C-8.09539063 21.2071875 -8.19078125 20.289375 -8.2890625 19.34375 C-8.89512311 13.19656379 -9.08968484 7.17704338 -9 1 C-4.545 0.505 -4.545 0.505 0 0 Z " fill="#633F2E" transform="translate(72,70)"/>
<path d="M0 0 C1.62463842 -0.05395478 3.24978541 -0.09277195 4.875 -0.125 C5.77992187 -0.14820313 6.68484375 -0.17140625 7.6171875 -0.1953125 C10 0 10 0 12 2 C12.99 2.33 13.98 2.66 15 3 C15 3.66 15 4.32 15 5 C15.90298828 5.1546875 15.90298828 5.1546875 16.82421875 5.3125 C20.06996269 6.33808516 21.24231962 8.15252825 23.09765625 10.91015625 C24.4491359 14.04020653 23.93221042 16.4471526 23.328125 19.73046875 C22.98837835 22.0803831 23.1304682 23.91403111 23.5 26.25 C23.94934416 29.62008121 23.90783863 31.77212932 23 35 C21.35 34.67 19.7 34.34 18 34 C17.22157062 30.59437148 16.90021879 27.49234244 17 24 C15.68 23.67 14.36 23.34 13 23 C13.33 22.236875 13.66 21.47375 14 20.6875 C15.17436686 18.00930865 15.17436686 18.00930865 15 15 C16.32 14.67 17.64 14.34 19 14 C18.01 13.67 17.02 13.34 16 13 C15.3125 10.9375 15.3125 10.9375 15 9 C13.6078125 9.061875 13.6078125 9.061875 12.1875 9.125 C9 9 9 9 6 7 C4.33380554 6.9603287 2.66608987 6.95615553 1 7 C0 6 0 6 -0.0625 2.9375 C-0.041875 1.968125 -0.02125 0.99875 0 0 Z " fill="#2F153B" transform="translate(31,44)"/>
<path d="M0 0 C5.625 -0.25 5.625 -0.25 9 2 C9.99 2.144375 10.98 2.28875 12 2.4375 C15.20677236 3.03876982 16.02169341 3.52711676 18 6 C18.66 6.66 19.32 7.32 20 8 C18.35 8.66 16.7 9.32 15 10 C15.33 10.99 15.66 11.98 16 13 C15.0625 15.1875 15.0625 15.1875 14 17 C14.99 17.33 15.98 17.66 17 18 C17.12375 19.85625 17.12375 19.85625 17.25 21.75 C17.63475459 24.98882964 17.90024003 25.87907883 20.0625 28.5 C21.0215625 29.2425 21.0215625 29.2425 22 30 C20.35 30.66 18.7 31.32 17 32 C16.67 30.02 16.34 28.04 16 26 C15.01 25.67 14.02 25.34 13 25 C13 23.02 13 21.04 13 19 C12.01 19.33 11.02 19.66 10 20 C8 18 8 18 7.8046875 15.6171875 C7.83949219 14.25980469 7.83949219 14.25980469 7.875 12.875 C7.89304687 11.96492188 7.91109375 11.05484375 7.9296875 10.1171875 C7.96449219 9.06917969 7.96449219 9.06917969 8 8 C8.99 8 9.98 8 11 8 C10.01 7.67 9.02 7.34 8 7 C8 6.34 8 5.68 8 5 C7.34 5 6.68 5 6 5 C6 7.97 6 10.94 6 14 C2 12 2 12 0 9 C-0.1953125 6.73828125 -0.1953125 6.73828125 -0.125 4.3125 C-0.10695313 3.50425781 -0.08890625 2.69601563 -0.0703125 1.86328125 C-0.04710938 1.24839844 -0.02390625 0.63351563 0 0 Z " fill="#3C194B" transform="translate(31,50)"/>
<path d="M0 0 C1.98 0.66 3.96 1.32 6 2 C5.67 15.2 5.34 28.4 5 42 C4.34 41.67 3.68 41.34 3 41 C2.51342773 39.05395508 2.51342773 39.05395508 2.18359375 36.51953125 C2.05919922 35.60236328 1.93480469 34.68519531 1.80664062 33.74023438 C1.68482422 32.77408203 1.56300781 31.80792969 1.4375 30.8125 C1.18669613 28.92311088 0.93540651 27.03378617 0.68359375 25.14453125 C0.56725586 24.24653809 0.45091797 23.34854492 0.33105469 22.42333984 C0.07022533 20.51405359 -0.24585642 18.61231376 -0.58203125 16.71484375 C-1.04724165 13.69315002 -1.13267859 10.80607831 -1.125 7.75 C-1.12757812 6.71359375 -1.13015625 5.6771875 -1.1328125 4.609375 C-1 2 -1 2 0 0 Z " fill="#C79C7E" transform="translate(17,68)"/>
<path d="M0 0 C1.83515008 3.60646886 3.42371474 7.27423485 5 11 C5.33 10.34 5.66 9.68 6 9 C6.99 9.33 7.98 9.66 9 10 C9.33 12.64 9.66 15.28 10 18 C12.97 18 15.94 18 19 18 C19.33 17.34 19.66 16.68 20 16 C19.8125 18.3125 19.8125 18.3125 19 21 C16.4375 22.8125 16.4375 22.8125 14 24 C14.33 24.66 14.66 25.32 15 26 C6.42857143 26.28571429 6.42857143 26.28571429 3 24 C3.99 24 4.98 24 6 24 C6 23.34 6 22.68 6 22 C5.34 22 4.68 22 4 22 C3.86722656 21.39671875 3.73445313 20.7934375 3.59765625 20.171875 C3.42105469 19.37265625 3.24445312 18.5734375 3.0625 17.75 C2.80146484 16.56664062 2.80146484 16.56664062 2.53515625 15.359375 C2.20424385 13.90046195 1.85279967 12.44583407 1.46875 11 C0.94186386 8.75195247 0.67387179 6.5461831 0.4375 4.25 C0.31181641 3.05117187 0.31181641 3.05117187 0.18359375 1.828125 C0.12300781 1.22484375 0.06242187 0.6215625 0 0 Z " fill="#906D58" transform="translate(33,6)"/>
<path d="M0 0 C0.66 0 1.32 0 2 0 C2 2.31 2 4.62 2 7 C-6.91 7 -15.82 7 -25 7 C-25.66 5.68 -26.32 4.36 -27 3 C-30.05908413 2.18415432 -30.05908413 2.18415432 -33 2 C-33 1.67 -33 1.34 -33 1 C-32.03586182 1.00523682 -31.07172363 1.01047363 -30.07836914 1.01586914 C-26.51327436 1.03392118 -22.94818364 1.04543274 -19.38305664 1.05493164 C-17.83780234 1.0599714 -16.29255284 1.0668032 -14.74731445 1.07543945 C-12.53074971 1.08752076 -10.31424782 1.09323173 -8.09765625 1.09765625 C-7.05545677 1.10539818 -7.05545677 1.10539818 -5.99220276 1.11329651 C-4.3277067 1.11349277 -2.66334501 1.06189129 -1 1 C-0.67 0.67 -0.34 0.34 0 0 Z " fill="#BEBDBE" transform="translate(64,108)"/>
<path d="M0 0 C0.99 0.33 1.98 0.66 3 1 C3.04898438 1.556875 3.09796875 2.11375 3.1484375 2.6875 C3.52851267 6.56688796 3.99421305 10.20131879 5.125 13.9375 C6.66262879 19.60964175 5.83798776 25.48603673 4 31 C3.34 31 2.68 31 2 31 C1.65846908 27.70913156 1.32833354 24.41720923 1 21.125 C0.90460937 20.2071875 0.80921875 19.289375 0.7109375 18.34375 C0.10589688 12.20690947 -0.12065893 6.16533625 0 0 Z " fill="#635D5B" transform="translate(63,71)"/>
<path d="M0 0 C7.86592393 0.3361506 7.86592393 0.3361506 11.5625 2.5 C13.71529227 6.24398656 13.32458364 9.78041274 13 14 C12.34 13.01 11.68 12.02 11 11 C10.67 11.66 10.34 12.32 10 13 C6.63820226 11.55922954 4.40843732 9.75249979 2 7 C2 6.34 2 5.68 2 5 C3.32 4.67 4.64 4.34 6 4 C3.03 3.505 3.03 3.505 0 3 C0 2.01 0 1.02 0 0 Z " fill="#1D1917" transform="translate(43,1)"/>
<path d="M0 0 C0.33 0 0.66 0 1 0 C1.0293908 3.64581598 1.04692874 7.29160087 1.0625 10.9375 C1.07087891 11.95908203 1.07925781 12.98066406 1.08789062 14.03320312 C1.10731234 20.1121997 0.79820318 25.9726232 0 32 C-3.93281808 27.38231122 -3.42651975 23.84332053 -3 18 C-1.4854666 1.4854666 -1.4854666 1.4854666 0 0 Z " fill="#9F9E9E" transform="translate(27,67)"/>
<path d="M0 0 C2.68637711 2.68637711 2.98343234 5.3784777 4 9 C4.99 10.485 4.99 10.485 6 12 C6.4375 15.4375 6.4375 15.4375 6 19 C3.5625 21.4375 3.5625 21.4375 1 23 C0.67 23 0.34 23 0 23 C0 15.41 0 7.82 0 0 Z " fill="#512060" transform="translate(31,63)"/>
<path d="M0 0 C0.33 0.66 0.66 1.32 1 2 C1.66 2 2.32 2 3 2 C3.02887512 5.64581687 3.04675585 9.29160463 3.0625 12.9375 C3.07087891 13.97841797 3.07925781 15.01933594 3.08789062 16.09179688 C3.09111328 17.08115234 3.09433594 18.07050781 3.09765625 19.08984375 C3.10289307 20.00628662 3.10812988 20.92272949 3.11352539 21.86694336 C3 24 3 24 2 25 C0.33382885 25.04063832 -1.33388095 25.042721 -3 25 C-3.33 22.36 -3.66 19.72 -4 17 C-3.34 17 -2.68 17 -2 17 C-2 18.98 -2 20.96 -2 23 C-1.01 23 -0.02 23 1 23 C0.67 22.34 0.34 21.68 0 21 C-0.08400529 19.40552536 -0.10727467 17.80759455 -0.09765625 16.2109375 C-0.09282227 14.79941406 -0.09282227 14.79941406 -0.08789062 13.359375 C-0.07951172 12.37453125 -0.07113281 11.3896875 -0.0625 10.375 C-0.05798828 9.38242188 -0.05347656 8.38984375 -0.04882812 7.3671875 C-0.03702145 4.9113984 -0.020554 2.45572896 0 0 Z " fill="#5B3A29" transform="translate(69,90)"/>
<path d="M0 0 C0.66 0.33 1.32 0.66 2 1 C2.4140625 3.28515625 2.4140625 3.28515625 2.625 6.0625 C2.69976562 6.98160156 2.77453125 7.90070313 2.8515625 8.84765625 C2.90054688 9.55792969 2.94953125 10.26820312 3 11 C0.125 11.125 0.125 11.125 -3 11 C-5 9 -5 9 -6 7 C-6.66 7.99 -7.32 8.98 -8 10 C-8.33 9.01 -8.66 8.02 -9 7 C-3.51752022 1.21293801 -3.51752022 1.21293801 0 0 Z " fill="#2E143A" transform="translate(43,83)"/>
<path d="M0 0 C1.98 0.66 3.96 1.32 6 2 C5.67 11.24 5.34 20.48 5 30 C4.67 30 4.34 30 4 30 C4 23.73 4 17.46 4 11 C2.68 11.33 1.36 11.66 0 12 C0 8.04 0 4.08 0 0 Z " fill="#A57454" transform="translate(17,68)"/>
<path d="M0 0 C-0.350625 0.845625 -0.70125 1.69125 -1.0625 2.5625 C-2.12277509 6.45017533 -1.78314872 9.08425639 -1 13 C-1.66 13 -2.32 13 -3 13 C-3.33 13.99 -3.66 14.98 -4 16 C-6.79980627 11.8002906 -8.67631283 8.1399775 -8 3 C-5.82311273 -0.32261741 -3.79605352 -0.30778812 0 0 Z " fill="#1C1613" transform="translate(42,2)"/>
<path d="M0 0 C0.66 0.99 1.32 1.98 2 3 C2.99 3 3.98 3 5 3 C5.66 2.34 6.32 1.68 7 1 C7 2.65 7 4.3 7 6 C5.35 6 3.7 6 2 6 C1.67 6.66 1.34 7.32 1 8 C0.38125 8.5775 -0.2375 9.155 -0.875 9.75 C-3.27634474 12.29260031 -4.55969084 14.83131984 -6 18 C-6.33 18 -6.66 18 -7 18 C-7.29029144 14.6197175 -7.44129583 11.3708621 -7 8 C-4.625 5.625 -4.625 5.625 -2 4 C-0.68834743 1.88339573 -0.68834743 1.88339573 0 0 Z " fill="#391847" transform="translate(38,78)"/>
<path d="M0 0 C2.03120707 3.04681061 2.24659875 3.60118324 2.1953125 7.01171875 C2.18564453 8.14770508 2.18564453 8.14770508 2.17578125 9.30664062 C2.15902344 10.09232422 2.14226562 10.87800781 2.125 11.6875 C2.11597656 12.48478516 2.10695313 13.28207031 2.09765625 14.10351562 C2.07411585 16.069139 2.03824547 18.03460775 2 20 C1.67 20 1.34 20 1 20 C0.67 17.69 0.34 15.38 0 13 C-0.99 12.67 -1.98 12.34 -3 12 C-3 11.34 -3 10.68 -3 10 C-2.34 10 -1.68 10 -1 10 C-1.639375 9.443125 -2.27875 8.88625 -2.9375 8.3125 C-5.19680987 5.77933439 -5.63149047 4.31658576 -6 1 C-4.02 0.67 -2.04 0.34 0 0 Z " fill="#6B4635" transform="translate(72,70)"/>
<path d="M0 0 C0.33 0.99 0.66 1.98 1 3 C-0.93254772 5.0245738 -2.63158688 6.42105792 -5 8 C-4.67 8.66 -4.34 9.32 -4 10 C-12.57142857 10.28571429 -12.57142857 10.28571429 -16 8 C-15.071875 7.54625 -14.14375 7.0925 -13.1875 6.625 C-9.96078611 5.0578367 -9.96078611 5.0578367 -7 3 C-4.67612053 2.60612212 -2.34206251 2.26513915 0 2 C0 1.34 0 0.68 0 0 Z " fill="#B08669" transform="translate(52,22)"/>
<path d="M0 0 C1.46015291 0.28241641 2.91809793 0.57626614 4.375 0.875 C5.18710937 1.03742188 5.99921875 1.19984375 6.8359375 1.3671875 C9 2 9 2 11 4 C11 4.99 11 5.98 11 7 C7.37 7 3.74 7 0 7 C0 4.69 0 2.38 0 0 Z " fill="#DCDCDA" transform="translate(28,108)"/>
<path d="M0 0 C5.61 0.33 11.22 0.66 17 1 C17 2.65 17 4.3 17 6 C14.03 6 11.06 6 8 6 C7.34 4.68 6.68 3.36 6 2 C2.94091587 1.18415432 2.94091587 1.18415432 0 1 C0 0.67 0 0.34 0 0 Z " fill="#787575" transform="translate(31,109)"/>
<path d="M0 0 C0.33 0 0.66 0 1 0 C1.8149484 9.1775727 2.11139151 17.81819633 1 27 C0.34 26.67 -0.32 26.34 -1 26 C-1.18451025 8.14350797 -1.18451025 8.14350797 0 0 Z " fill="#442B20" transform="translate(23,70)"/>
<path d="M0 0 C0.33 0 0.66 0 1 0 C1.02687279 1.81242052 1.04633715 3.62495233 1.0625 5.4375 C1.07410156 6.44683594 1.08570312 7.45617187 1.09765625 8.49609375 C1 11 1 11 0 12 C-1.66617115 12.04063832 -3.33388095 12.042721 -5 12 C-5.33 9.36 -5.66 6.72 -6 4 C-5.34 4 -4.68 4 -4 4 C-4 5.98 -4 7.96 -4 10 C-3.01 10 -2.02 10 -1 10 C-1.01160156 9.36191406 -1.02320312 8.72382812 -1.03515625 8.06640625 C-1.04417969 7.24011719 -1.05320312 6.41382812 -1.0625 5.5625 C-1.07410156 4.73878906 -1.08570312 3.91507812 -1.09765625 3.06640625 C-1 1 -1 1 0 0 Z " fill="#745B51" transform="translate(71,103)"/>
<path d="M0 0 C2.1519437 3.22791555 2.20086443 4.28400809 2 8 C4.31 8 6.62 8 9 8 C9 8.33 9 8.66 9 9 C7.9275 9.28875 6.855 9.5775 5.75 9.875 C2.90599636 10.72820109 0.56491017 11.5636503 -2 13 C-2.33 11.68 -2.66 10.36 -3 9 C-2.01 9 -1.02 9 0 9 C-0.185625 7.88625 -0.37125 6.7725 -0.5625 5.625 C-1 2 -1 2 0 0 Z " fill="#80543D" transform="translate(41,16)"/>
<path d="M0 0 C0.66 1.32 1.32 2.64 2 4 C4.0335948 5.26804566 4.0335948 5.26804566 6 6 C4.48601545 9.78496138 3.9855604 10.0072198 0 12 C0 8.04 0 4.08 0 0 Z " fill="#582867" transform="translate(31,74)"/>
<path d="M0 0 C0.99 0.495 0.99 0.495 2 1 C2 1.66 2 2.32 2 3 C2.66 3 3.32 3 4 3 C4.33 5.64 4.66 8.28 5 11 C3.68 10.67 2.36 10.34 1 10 C0.22157062 6.59437148 -0.09978121 3.49234244 0 0 Z " fill="#331A45" transform="translate(48,68)"/>
<path d="M0 0 C0.33 0 0.66 0 1 0 C1.33 2.64 1.66 5.28 2 8 C2.99 8.33 3.98 8.66 5 9 C5 12.63 5 16.26 5 20 C4.67 20 4.34 20 4 20 C3.67 17.36 3.34 14.72 3 12 C2.01 12 1.02 12 0 12 C0 8.04 0 4.08 0 0 Z " fill="#B58D71" transform="translate(16,70)"/>
<path d="M0 0 C1.4386494 0.06032073 2.87611902 0.14920133 4.3125 0.25 C5.51326172 0.31960937 5.51326172 0.31960937 6.73828125 0.390625 C9 1 9 1 12 5 C6.06 4.01 6.06 4.01 0 3 C0 2.01 0 1.02 0 0 Z " fill="#2A2524" transform="translate(43,1)"/>
<path d="M0 0 C1 3 1 3 0.22265625 5.04296875 C-0.16019531 5.75066406 -0.54304688 6.45835938 -0.9375 7.1875 C-1.31777344 7.90292969 -1.69804688 8.61835937 -2.08984375 9.35546875 C-2.54037109 10.16951172 -2.54037109 10.16951172 -3 11 C-3.33 11 -3.66 11 -4 11 C-4.35233161 5.62694301 -4.35233161 5.62694301 -4 3 C-2 1 -2 1 0 0 Z " fill="#421D51" transform="translate(35,85)"/>
<path d="M0 0 C0.99 0 1.98 0 3 0 C3 0.99 3 1.98 3 3 C3.66 3.33 4.32 3.66 5 4 C4.01 5.485 4.01 5.485 3 7 C1.68 6.67 0.36 6.34 -1 6 C-1.042721 4.33388095 -1.04063832 2.66617115 -1 1 C-0.67 0.67 -0.34 0.34 0 0 Z " fill="#4B265E" transform="translate(40,75)"/>
<path d="M0 0 C0.68707555 2.49064888 1 4.37886292 1 7 C-1.31 6.67 -3.62 6.34 -6 6 C-4.71034824 4.62437146 -3.37310707 3.29233607 -2 2 C-1.34 2 -0.68 2 0 2 C0 1.34 0 0.68 0 0 Z " fill="#CAA289" transform="translate(52,25)"/>
<path d="M0 0 C1.45792884 -0.05399736 2.91642712 -0.09279177 4.375 -0.125 C5.18710937 -0.14820312 5.99921875 -0.17140625 6.8359375 -0.1953125 C9 0 9 0 11 2 C10 3 10 3 7.93359375 3.09765625 C7.10988281 3.08605469 6.28617188 3.07445313 5.4375 3.0625 C4.61121094 3.05347656 3.78492188 3.04445313 2.93359375 3.03515625 C2.29550781 3.02355469 1.65742187 3.01195313 1 3 C0.67 2.01 0.34 1.02 0 0 Z " fill="#9C9A9C" transform="translate(53,110)"/>
<path d="M0 0 C0.99 0.33 1.98 0.66 3 1 C3.625 3.375 3.625 3.375 4 6 C3.34 6.66 2.68 7.32 2 8 C2 7.34 2 6.68 2 6 C1.34 6 0.68 6 0 6 C-0.33 6.99 -0.66 7.98 -1 9 C-1.08886184 5.80097361 -0.91058531 3.07322544 0 0 Z " fill="#A17355" transform="translate(38,19)"/>
<path d="M0 0 C0.99 0.33 1.98 0.66 3 1 C3 3.97 3 6.94 3 10 C2.67 9.34 2.34 8.68 2 8 C1.01 8 0.02 8 -1 8 C-0.67 5.36 -0.34 2.72 0 0 Z " fill="#87583E" transform="translate(20,69)"/>
<path d="M0 0 C0.33 0 0.66 0 1 0 C1.22281874 1.91503674 1.42771076 3.83216506 1.625 5.75 C1.74101563 6.81734375 1.85703125 7.8846875 1.9765625 8.984375 C2.00029475 12.03792399 1.61420985 13.46162421 0 16 C-0.71033431 10.47032059 -1.30267176 5.50016964 0 0 Z " fill="#3B2921" transform="translate(67,83)"/>
<path d="M0 0 C0.99 0 1.98 0 3 0 C3.33 2.97 3.66 5.94 4 9 C3.01 9 2.02 9 1 9 C0.67 6.03 0.34 3.06 0 0 Z " fill="#321B12" transform="translate(66,104)"/>
<path d="M0 0 C1.70884005 1.62339805 3.37446717 3.29319053 5 5 C5 5.66 5 6.32 5 7 C4.01 7 3.02 7 2 7 C1.67 7.99 1.34 8.98 1 10 C-0.60725635 6.78548731 -0.05748185 3.56387464 0 0 Z " fill="#553424" transform="translate(66,73)"/>
<path d="M0 0 C2.29013653 3.4352048 2.17842973 4.985331 2 9 C1.01 9.33 0.02 9.66 -1 10 C-1.125 3.375 -1.125 3.375 0 0 Z " fill="#321A44" transform="translate(59,72)"/>
<path d="M0 0 C1.98 0 3.96 0 6 0 C6 1.32 6 2.64 6 4 C4.35 4 2.7 4 1 4 C0.67 2.68 0.34 1.36 0 0 Z " fill="#868383" transform="translate(42,111)"/>
<path d="M0 0 C1.0625 1.8125 1.0625 1.8125 2 4 C1.67 4.99 1.34 5.98 1 7 C0.65179959 8.66362417 0.31595508 10.32995171 0 12 C-0.33 12 -0.66 12 -1 12 C-1.02698189 10.37509046 -1.04638757 8.75005367 -1.0625 7.125 C-1.07410156 6.22007813 -1.08570313 5.31515625 -1.09765625 4.3828125 C-1 2 -1 2 0 0 Z " fill="#24102A" transform="translate(46,76)"/>
<path d="M0 0 C0.33 0.99 0.66 1.98 1 3 C0.67 3.66 0.34 4.32 0 5 C-2.97 5 -5.94 5 -9 5 C-6.23776722 2.23776722 -3.79293383 2.42143709 0 2 C0 1.34 0 0.68 0 0 Z " fill="#A27A60" transform="translate(52,22)"/>
<path d="M0 0 C0.99 1.32 1.98 2.64 3 4 C2.67 4.66 2.34 5.32 2 6 C1.34 5.67 0.68 5.34 0 5 C-0.33 5.99 -0.66 6.98 -1 8 C-1.33 5.69 -1.66 3.38 -2 1 C-1.34 0.67 -0.68 0.34 0 0 Z " fill="#513628" transform="translate(24,95)"/>
<path d="M0 0 C2.0625 0.4375 2.0625 0.4375 4 1 C4 1.99 4 2.98 4 4 C2.68 4.33 1.36 4.66 0 5 C-0.5625 3.0625 -0.5625 3.0625 -1 1 C-0.67 0.67 -0.34 0.34 0 0 Z " fill="#372252" transform="translate(48,77)"/>
<path d="M0 0 C0.66 0 1.32 0 2 0 C0.79618552 2.49361571 -0.45428722 4.68143083 -2 7 C-2.66 7 -3.32 7 -4 7 C-2.92598892 4.08482708 -2.22189824 2.22189824 0 0 Z " fill="#222121" transform="translate(23,37)"/>
</svg>
